<svg width="406" height="208" viewBox="0 0 406 208" fill="none" xmlns="http://www.w3.org/2000/svg"><rect opacity="0.25" x="0.666687" y="40.001" width="405.33" height="128" rx="12" fill="#FFD9AB"/><g clip-path="url(#clip0_100_2813)"><g opacity="0.35"><path d="M52.3071 107.154C57.8497 101.938 66.3393 92.1901 71.2955 83.9131C71.562 83.468 71.6952 83.2455 71.9076 83.1433C72.12 83.0411 72.3724 83.0751 72.8772 83.1432L89.3708 85.3677C90.1017 85.4662 90.4672 85.5155 90.6596 85.8541C90.852 86.1928 90.7193 86.5037 90.4539 87.1255C88.3594 92.0332 80.832 105.588 75.0201 112.498C74.3051 113.348 73.9477 113.773 73.3625 113.975C72.7773 114.176 72.1833 114.051 70.9954 113.8L53.0676 110.018C51.6669 109.722 50.9666 109.575 50.8379 109.116C50.7093 108.658 51.2419 108.157 52.3071 107.154Z" fill="#FFD9AB"/><path d="M344.47 57.1532C350.013 51.9372 358.502 42.1891 363.459 33.9121C363.725 33.467 363.858 33.2445 364.071 33.1423C364.283 33.0401 364.536 33.0741 365.04 33.1422L381.534 35.3667C382.265 35.4653 382.63 35.5146 382.823 35.8532C383.015 36.1918 382.882 36.5027 382.617 37.1246C380.522 42.0322 372.995 55.5869 367.183 62.4971C366.468 63.3471 366.111 63.7721 365.526 63.9737C364.94 64.1754 364.346 64.0501 363.159 63.7994L345.231 60.0169C343.83 59.7214 343.13 59.5737 343.001 59.1152C342.872 58.6568 343.405 58.1556 344.47 57.1532Z" fill="#FFD9AB"/><path d="M243.47 175.153C249.013 169.937 257.502 160.189 262.459 151.912C262.725 151.467 262.858 151.245 263.071 151.142C263.283 151.04 263.536 151.074 264.04 151.142L280.534 153.367C281.265 153.465 281.63 153.515 281.823 153.853C282.015 154.192 281.882 154.503 281.617 155.125C279.522 160.032 271.995 173.587 266.183 180.497C265.468 181.347 265.111 181.772 264.526 181.974C263.94 182.175 263.346 182.05 262.159 181.799L244.231 178.017C242.83 177.721 242.13 177.574 242.001 177.115C241.872 176.657 242.405 176.156 243.47 175.153Z" fill="#FFD9AB"/><path d="M120.47 44.1532C126.013 38.9372 134.502 29.1891 139.459 20.9121C139.725 20.467 139.858 20.2445 140.071 20.1423C140.283 20.0401 140.536 20.0741 141.04 20.1422L157.534 22.3667C158.265 22.4653 158.63 22.5146 158.823 22.8532C159.015 23.1918 158.882 23.5027 158.617 24.1246C156.522 29.0322 148.995 42.5869 143.183 49.4971C142.468 50.3471 142.111 50.7721 141.526 50.9737C140.94 51.1754 140.346 51.0501 139.159 50.7994L121.231 47.0169C119.83 46.7214 119.13 46.5737 119.001 46.1152C118.872 45.6568 119.405 45.1556 120.47 44.1532Z" fill="#FFD9AB"/><path d="M360.692 128.153C355.15 122.937 346.66 113.189 341.704 104.912C341.437 104.467 341.304 104.245 341.092 104.142C340.879 104.04 340.627 104.074 340.122 104.142L323.629 106.367C322.898 106.465 322.532 106.515 322.34 106.853C322.147 107.192 322.28 107.503 322.546 108.125C324.64 113.032 332.167 126.587 337.979 133.497C338.694 134.347 339.052 134.772 339.637 134.974C340.222 135.175 340.816 135.05 342.004 134.799L359.932 131.017C361.333 130.721 362.033 130.574 362.162 130.115C362.29 129.657 361.758 129.156 360.692 128.153Z" fill="#FFD9AB"/><path d="M218.692 88.1532C213.15 82.9372 204.66 73.1891 199.704 64.9121C199.437 64.467 199.304 64.2445 199.092 64.1423C198.879 64.0401 198.627 64.0741 198.122 64.1422L181.629 66.3667C180.898 66.4653 180.532 66.5146 180.34 66.8532C180.147 67.1918 180.28 67.5027 180.546 68.1246C182.64 73.0322 190.167 86.5869 195.979 93.4971C196.694 94.3471 197.052 94.7721 197.637 94.9737C198.222 95.1754 198.816 95.0501 200.004 94.7994L217.932 91.0169C219.333 90.7214 220.033 90.5737 220.162 90.1152C220.29 89.6568 219.758 89.1556 218.692 88.1532Z" fill="#FFD9AB"/><path d="M290.692 48.1532C285.15 42.9372 276.66 33.1891 271.704 24.9121C271.437 24.467 271.304 24.2445 271.092 24.1423C270.879 24.0401 270.627 24.0741 270.122 24.1422L253.629 26.3667C252.898 26.4653 252.532 26.5146 252.34 26.8532C252.147 27.1918 252.28 27.5027 252.546 28.1246C254.64 33.0322 262.167 46.5869 267.979 53.4971C268.694 54.3471 269.052 54.7721 269.637 54.9737C270.222 55.1754 270.816 55.0501 272.004 54.7994L289.932 51.0169C291.333 50.7214 292.033 50.5737 292.162 50.1152C292.29 49.6568 291.758 49.1556 290.692 48.1532Z" fill="#FFD9AB"/><path d="M310.869 103.543C308.333 101.156 304.448 96.6949 302.18 92.9072C302.058 92.7035 301.997 92.6017 301.9 92.5549C301.803 92.5081 301.687 92.5237 301.456 92.5549L293.908 93.5728C293.574 93.6179 293.407 93.6405 293.318 93.7954C293.23 93.9504 293.291 94.0927 293.413 94.3773C294.371 96.6231 297.816 102.826 300.475 105.988C300.803 106.377 300.966 106.572 301.234 106.664C301.502 106.756 301.774 106.699 302.317 106.584L310.521 104.853L310.521 104.853C311.162 104.718 311.483 104.65 311.542 104.441C311.6 104.231 311.357 104.001 310.869 103.543Z" fill="#FFD9AB"/><path d="M229.706 162.032C227.17 159.645 223.285 155.184 221.017 151.396C220.895 151.193 220.834 151.091 220.737 151.044C220.639 150.997 220.524 151.013 220.293 151.044L212.745 152.062C212.411 152.107 212.243 152.13 212.155 152.285C212.067 152.44 212.128 152.582 212.25 152.867C213.208 155.112 216.653 161.315 219.312 164.477C219.639 164.866 219.803 165.061 220.071 165.153C220.339 165.245 220.61 165.188 221.154 165.073L229.358 163.342L229.358 163.342C229.999 163.207 230.32 163.14 230.378 162.93C230.437 162.72 230.194 162.491 229.706 162.032Z" fill="#FFD9AB"/><path d="M158.543 92.7415C156.007 95.1284 152.122 99.5893 149.854 103.377C149.732 103.581 149.671 103.682 149.574 103.729C149.476 103.776 149.361 103.76 149.13 103.729L141.582 102.711C141.248 102.666 141.08 102.644 140.992 102.489C140.904 102.334 140.965 102.191 141.086 101.907C142.045 99.6611 145.49 93.4582 148.149 90.296C148.476 89.9071 148.64 89.7126 148.908 89.6203C149.176 89.528 149.447 89.5854 149.991 89.7001L158.195 91.431L158.195 91.431C158.836 91.5662 159.157 91.6338 159.215 91.8436C159.274 92.0534 159.031 92.2828 158.543 92.7415Z" fill="#FFD9AB"/><path d="M201.967 42.5212C204.504 40.1343 208.389 35.6734 210.657 31.8857C210.779 31.682 210.84 31.5802 210.937 31.5334C211.034 31.4866 211.149 31.5022 211.38 31.5334L218.928 32.5513C219.263 32.5964 219.43 32.619 219.518 32.774C219.606 32.9289 219.545 33.0712 219.424 33.3558C218.465 35.6016 215.021 41.8045 212.361 44.9667C212.034 45.3556 211.87 45.5501 211.602 45.6424C211.335 45.7347 211.063 45.6773 210.519 45.5626L202.315 43.8317L202.315 43.8317C201.674 43.6965 201.354 43.6289 201.295 43.4191C201.236 43.2093 201.48 42.9799 201.967 42.5212Z" fill="#FFD9AB"/><path d="M256.33 74.0009C254.827 75.4154 252.524 78.059 251.18 80.3037C251.108 80.4244 251.072 80.4847 251.014 80.5125C250.957 80.5402 250.888 80.5309 250.751 80.5125L246.278 79.9092C246.08 79.8825 245.981 79.8691 245.929 79.7773C245.877 79.6855 245.913 79.6011 245.985 79.4325C246.553 78.1016 248.594 74.4257 250.17 72.5517C250.364 72.3212 250.461 72.2059 250.62 72.1512C250.778 72.0965 250.94 72.1305 251.262 72.1985L256.124 73.2243C256.503 73.3044 256.693 73.3445 256.728 73.4688C256.763 73.5931 256.619 73.7291 256.33 74.0009Z" fill="#FFD9AB"/><path d="M322.493 143.083C320.99 144.497 318.687 147.141 317.343 149.386C317.271 149.506 317.235 149.567 317.177 149.594C317.12 149.622 317.051 149.613 316.914 149.595L312.442 148.991C312.243 148.965 312.144 148.951 312.092 148.859C312.04 148.767 312.076 148.683 312.148 148.515C312.716 147.184 314.757 143.508 316.333 141.634C316.527 141.403 316.624 141.288 316.783 141.233C316.942 141.179 317.103 141.213 317.425 141.281L322.287 142.306C322.666 142.386 322.856 142.427 322.891 142.551C322.926 142.675 322.782 142.811 322.493 143.083Z" fill="#FFD9AB"/><path d="M368.833 82.165C370.336 83.5795 372.638 86.2231 373.982 88.4678C374.055 88.5884 374.091 88.6488 374.148 88.6765C374.206 88.7042 374.274 88.695 374.411 88.6765L378.884 88.0733C379.082 88.0466 379.182 88.0332 379.234 87.9414C379.286 87.8495 379.25 87.7652 379.178 87.5966C378.61 86.2656 376.569 82.5897 374.992 80.7158C374.799 80.4852 374.702 80.37 374.543 80.3153C374.384 80.2606 374.223 80.2946 373.901 80.3626L369.039 81.3883C368.659 81.4685 368.469 81.5086 368.434 81.6329C368.4 81.7572 368.544 81.8931 368.833 82.165Z" fill="#FFD9AB"/><path d="M312.67 61.5509C314.173 60.1363 316.475 57.4927 317.819 55.2481C317.891 55.1274 317.928 55.067 317.985 55.0393C318.043 55.0116 318.111 55.0208 318.248 55.0393L322.721 55.6425C322.919 55.6693 323.018 55.6826 323.071 55.7745C323.123 55.8663 323.087 55.9506 323.015 56.1193C322.447 57.4502 320.405 61.1261 318.829 63.0001C318.635 63.2306 318.538 63.3459 318.38 63.4005C318.221 63.4552 318.06 63.4212 317.738 63.3533L312.876 62.3275C312.496 62.2473 312.306 62.2073 312.271 62.0829C312.236 61.9586 312.381 61.8227 312.67 61.5509Z" fill="#FFD9AB"/><path d="M119.493 70.5509C117.99 69.1363 115.687 66.4927 114.343 64.2481C114.271 64.1274 114.235 64.067 114.177 64.0393C114.12 64.0116 114.051 64.0208 113.914 64.0393L109.442 64.6425C109.243 64.6693 109.144 64.6826 109.092 64.7745C109.04 64.8663 109.076 64.9506 109.148 65.1193C109.716 66.4502 111.757 70.1261 113.333 72.0001C113.527 72.2306 113.624 72.3459 113.783 72.4005C113.942 72.4552 114.103 72.4212 114.425 72.3533L119.287 71.3275C119.666 71.2473 119.856 71.2073 119.891 71.0829C119.926 70.9586 119.782 70.8227 119.493 70.5509Z" fill="#FFD9AB"/><path d="M88.4929 138.94C86.9898 140.355 84.6875 142.998 83.3434 145.243C83.2711 145.364 83.235 145.424 83.1774 145.452C83.1198 145.48 83.0513 145.47 82.9144 145.452L78.4415 144.849C78.2433 144.822 78.1442 144.809 78.092 144.717C78.0398 144.625 78.0758 144.541 78.1478 144.372C78.7158 143.041 80.7572 139.365 82.3333 137.491C82.5272 137.261 82.6241 137.145 82.7828 137.091C82.9415 137.036 83.1026 137.07 83.4247 137.138L88.2866 138.164C88.6665 138.244 88.8564 138.284 88.8913 138.408C88.9262 138.533 88.7817 138.669 88.4929 138.94Z" fill="#FFD9AB"/><path d="M19.6697 97.9404C21.1728 99.3549 23.4751 101.998 24.8192 104.243C24.8914 104.364 24.9276 104.424 24.9852 104.452C25.0428 104.48 25.1112 104.47 25.2481 104.452L29.721 103.849C29.9193 103.822 30.0184 103.809 30.0705 103.717C30.1227 103.625 30.0867 103.541 30.0148 103.372C29.4467 102.041 27.4054 98.3651 25.8292 96.4911C25.6354 96.2606 25.5384 96.1454 25.3797 96.0907C25.221 96.036 25.0599 96.07 24.7378 96.1379L19.8759 97.1637C19.4961 97.2439 19.3061 97.2839 19.2712 97.4083C19.2364 97.5326 19.3808 97.6685 19.6697 97.9404Z" fill="#FFD9AB"/><path d="M128.493 161.94C126.99 163.355 124.687 165.998 123.343 168.243C123.271 168.364 123.235 168.424 123.177 168.452C123.12 168.48 123.051 168.47 122.914 168.452L118.442 167.849C118.243 167.822 118.144 167.809 118.092 167.717C118.04 167.625 118.076 167.541 118.148 167.372C118.716 166.041 120.757 162.365 122.333 160.491C122.527 160.261 122.624 160.145 122.783 160.091C122.942 160.036 123.103 160.07 123.425 160.138L128.287 161.164C128.666 161.244 128.856 161.284 128.891 161.408C128.926 161.533 128.782 161.669 128.493 161.94Z" fill="#FFD9AB"/><path d="M225.493 117.94C223.99 119.355 221.687 121.998 220.343 124.243C220.271 124.364 220.235 124.424 220.177 124.452C220.12 124.48 220.051 124.47 219.914 124.452L215.442 123.849C215.243 123.822 215.144 123.809 215.092 123.717C215.04 123.625 215.076 123.541 215.148 123.372C215.716 122.041 217.757 118.365 219.333 116.491C219.527 116.261 219.624 116.145 219.783 116.091C219.942 116.036 220.103 116.07 220.425 116.138L225.287 117.164C225.666 117.244 225.856 117.284 225.891 117.408C225.926 117.533 225.782 117.669 225.493 117.94Z" fill="#FFD9AB"/><path d="M171.967 132.741C174.504 135.128 178.389 139.589 180.657 143.377C180.779 143.581 180.84 143.682 180.937 143.729C181.034 143.776 181.149 143.76 181.38 143.729L188.928 142.711C189.263 142.666 189.43 142.644 189.518 142.489C189.606 142.334 189.545 142.191 189.424 141.907C188.465 139.661 185.021 133.458 182.361 130.296C182.034 129.907 181.87 129.713 181.602 129.62C181.335 129.528 181.063 129.585 180.519 129.7L172.315 131.431L172.315 131.431C171.674 131.566 171.354 131.634 171.295 131.844C171.236 132.053 171.48 132.283 171.967 132.741Z" fill="#FFD9AB"/><path d="M51.9671 60.5212C54.5035 58.1343 58.3885 53.6734 60.6565 49.8857C60.7785 49.682 60.8395 49.5802 60.9367 49.5334C61.0339 49.4866 61.1494 49.5022 61.3804 49.5334L68.9281 50.5513C69.2626 50.5964 69.4298 50.619 69.5179 50.774C69.6059 50.9289 69.5452 51.0712 69.4237 51.3558C68.4653 53.6016 65.0206 59.8045 62.361 62.9667C62.0338 63.3556 61.8702 63.5501 61.6024 63.6424C61.3346 63.7347 61.0628 63.6773 60.5192 63.5626L52.3151 61.8317L52.3151 61.8317C51.6742 61.6965 51.3537 61.6289 51.2948 61.4191C51.236 61.2093 51.4797 60.9799 51.9671 60.5212Z" fill="#FFD9AB"/><path d="M14.3799 125.556C11.8435 127.943 7.95854 132.404 5.6905 136.191C5.56854 136.395 5.50756 136.497 5.41038 136.544C5.3132 136.591 5.19769 136.575 4.96669 136.544L-2.58105 135.526C-2.91555 135.481 -3.0828 135.458 -3.17084 135.303C-3.25888 135.148 -3.19815 135.006 -3.0767 134.721C-2.11821 132.476 1.32644 126.273 3.98605 123.11C4.31322 122.722 4.47681 122.527 4.74461 122.435C5.01242 122.342 5.28421 122.4 5.8278 122.515L14.0319 124.245L14.0319 124.245C14.6729 124.381 14.9934 124.448 15.0522 124.658C15.1111 124.868 14.8674 125.097 14.3799 125.556Z" fill="#FFD9AB"/><path d="M248.458 109.165C252.461 112.932 258.592 119.973 262.172 125.95C262.364 126.272 262.46 126.433 262.614 126.506C262.767 126.58 262.949 126.556 263.314 126.506L275.226 124.9C275.754 124.829 276.018 124.793 276.157 124.549C276.296 124.304 276.2 124.079 276.008 123.63C274.495 120.086 269.059 110.296 264.861 105.306C264.345 104.692 264.087 104.385 263.664 104.239C263.242 104.094 262.813 104.184 261.955 104.365L249.007 107.097L249.007 107.097C247.995 107.31 247.49 107.417 247.397 107.748C247.304 108.079 247.688 108.441 248.458 109.165Z" fill="#FFD9AB"/><path d="M414.618 89.1653C410.615 92.9324 404.484 99.9726 400.904 105.95C400.712 106.272 400.615 106.433 400.462 106.506C400.309 106.58 400.126 106.556 399.762 106.506L387.85 104.9C387.322 104.829 387.058 104.793 386.919 104.549C386.78 104.304 386.876 104.079 387.068 103.63C388.58 100.086 394.017 90.2965 398.214 85.3059C398.731 84.692 398.989 84.385 399.411 84.2394C399.834 84.0938 400.263 84.1843 401.121 84.3653L414.069 87.0971L414.069 87.0971C415.08 87.3105 415.586 87.4172 415.679 87.7483C415.772 88.0794 415.387 88.4413 414.618 89.1653Z" fill="#FFD9AB"/><path d="M394.458 148.444C398.461 144.677 404.592 137.637 408.172 131.659C408.364 131.338 408.46 131.177 408.614 131.103C408.767 131.029 408.949 131.054 409.314 131.103L421.226 132.71C421.754 132.781 422.018 132.816 422.157 133.061C422.296 133.305 422.2 133.53 422.008 133.979C420.495 137.523 415.059 147.313 410.861 152.303C410.345 152.917 410.087 153.224 409.664 153.37C409.242 153.516 408.813 153.425 407.955 153.244L395.007 150.512L395.007 150.512C393.995 150.299 393.49 150.192 393.397 149.861C393.304 149.53 393.688 149.168 394.458 148.444Z" fill="#FFD9AB"/><path d="M141.692 135.153C136.15 129.937 127.66 120.189 122.704 111.912C122.437 111.467 122.304 111.245 122.092 111.142C121.879 111.04 121.627 111.074 121.122 111.142L104.629 113.367C103.898 113.465 103.532 113.515 103.34 113.853C103.147 114.192 103.28 114.503 103.546 115.125C105.64 120.032 113.167 133.587 118.979 140.497C119.694 141.347 120.052 141.772 120.637 141.974C121.222 142.175 121.816 142.05 123.004 141.799L140.932 138.017C142.333 137.721 143.033 137.574 143.162 137.115C143.29 136.657 142.758 136.156 141.692 135.153Z" fill="#FFD9AB"/><path d="M24.6923 68.1532C19.1497 62.9372 10.6601 53.1891 5.7039 44.9121C5.4374 44.467 5.30415 44.2445 5.09178 44.1423C4.87941 44.0401 4.62701 44.0741 4.12222 44.1422L-12.3714 46.3667C-13.1023 46.4653 -13.4678 46.5146 -13.6602 46.8532C-13.8526 47.1918 -13.7199 47.5027 -13.4545 48.1246C-11.36 53.0322 -3.83259 66.5869 1.9793 73.4971C2.69424 74.3471 3.05171 74.7721 3.63692 74.9737C4.22214 75.1754 4.81607 75.0501 6.00394 74.7994L23.9318 71.0169C25.3325 70.7214 26.0328 70.5737 26.1615 70.1152C26.2901 69.6568 25.7575 69.1556 24.6923 68.1532Z" fill="#FFD9AB"/><path d="M18.4701 157.151C24.0128 162.367 32.5024 172.116 37.4586 180.393C37.7251 180.838 37.8583 181.06 38.0707 181.162C38.2831 181.265 38.5355 181.231 39.0403 181.162L55.5338 178.938C56.2648 178.839 56.6303 178.79 56.8227 178.452C57.0151 178.113 56.8824 177.802 56.617 177.18C54.5224 172.272 46.9951 158.718 41.1832 151.808C40.4682 150.958 40.1108 150.533 39.5256 150.331C38.9403 150.129 38.3464 150.255 37.1585 150.505L19.2306 154.288C17.83 154.583 17.1296 154.731 17.001 155.189C16.8724 155.648 17.405 156.149 18.4701 157.151Z" fill="#FFD9AB"/></g></g><path opacity="0.7" d="M339.954 165.32C344.894 167.731 352.837 172.636 358.028 177.284C358.307 177.534 358.447 177.659 358.615 177.684C358.783 177.709 358.95 177.631 359.284 177.476L370.184 172.41C370.667 172.185 370.908 172.073 370.968 171.798C371.029 171.524 370.871 171.338 370.554 170.965C368.059 168.029 359.964 160.292 354.476 156.77C353.801 156.337 353.463 156.12 353.016 156.107C352.569 156.093 352.186 156.306 351.421 156.734L339.865 163.182L339.865 163.182C338.962 163.686 338.511 163.937 338.521 164.281C338.53 164.625 339.005 164.857 339.954 165.32Z" fill="#FFD9AB"/><path opacity="0.7" d="M109.246 180.617C103.827 175.517 95.5258 165.985 90.6797 157.892C90.4192 157.457 90.2889 157.239 90.0812 157.139C89.8736 157.039 89.6268 157.072 89.1332 157.139L73.0061 159.314C72.2913 159.411 71.934 159.459 71.7459 159.79C71.5578 160.121 71.6875 160.425 71.947 161.033C73.995 165.832 81.3551 179.085 87.0379 185.842C87.7369 186.673 88.0865 187.088 88.6587 187.286C89.2309 187.483 89.8116 187.36 90.9731 187.115L90.9731 187.115L108.503 183.417C109.872 183.128 110.557 182.983 110.683 182.535C110.809 182.087 110.288 181.597 109.246 180.617Z" fill="#FFD9AB"/><path opacity="0.7" d="M182.207 162.343C176.744 164.394 167.856 168.779 161.903 173.169C161.583 173.405 161.422 173.523 161.242 173.533C161.062 173.542 160.893 173.443 160.556 173.246L149.546 166.796C149.058 166.51 148.814 166.367 148.778 166.07C148.742 165.774 148.928 165.593 149.3 165.232C152.233 162.38 161.565 155.017 167.72 151.847C168.477 151.457 168.855 151.262 169.329 151.292C169.802 151.323 170.185 151.587 170.952 152.115L182.515 160.092C183.419 160.715 183.871 161.027 183.826 161.389C183.782 161.751 183.257 161.948 182.207 162.343Z" fill="#FFD9AB"/><path d="M46.0007 195.001L361.001 195.001" stroke="#3C5D87" stroke-width="2" stroke-linecap="round"/><path d="M38.0007 195.001L41.0007 195.001" stroke="#3C5D87" stroke-width="2" stroke-linecap="round"/><path d="M366.001 195.001L369.001 195.001" stroke="#3C5D87" stroke-width="2" stroke-linecap="round"/><circle cx="102.418" cy="95.5248" r="13.886" transform="rotate(-2 102.418 95.5248)" fill="#3C5D87" stroke="#3C5D87" stroke-width="1.61134"/><path fill-rule="evenodd" clip-rule="evenodd" d="M147.539 64.6506C137.498 65.6676 124.577 68.0675 114.378 73.8574L127.473 92.4033C133.401 89.0376 142.283 87.0767 151.156 86.1779C155.429 85.7452 159.381 85.5889 162.489 85.5759C164.041 85.5694 165.343 85.5987 166.334 85.6423C167.187 85.6799 167.945 85.0636 168.043 84.2157L170.071 66.6764C170.222 65.3696 169.302 64.1873 167.99 64.0983C163.524 63.7955 155.854 63.8083 147.539 64.6506Z" fill="#3C5D87"/><path fill-rule="evenodd" clip-rule="evenodd" d="M174.079 77.782C172.843 77.062 172.425 75.4763 173.145 74.2402C174.658 71.6417 175.306 69.1726 174.574 65.151C174.318 63.7436 175.252 62.3951 176.659 62.139C178.066 61.8829 179.415 62.8162 179.671 64.2235C180.629 69.4897 179.74 73.209 177.621 76.8475C176.901 78.0836 175.315 78.502 174.079 77.782Z" fill="#FFD9AB" stroke="#3C5D87" stroke-width="1.61134" stroke-linecap="round"/><path d="M117.404 85.7037C117.59 91.0127 113.436 95.4669 108.127 95.6523C102.955 95.8329 99.3352 91.4037 99.1446 85.9443C99.0952 84.5304 99.162 83.5479 99.3721 82.7844C99.5741 82.0504 99.9171 81.4883 100.491 80.9322C101.087 80.3537 101.932 79.7823 103.155 79.0495C103.72 78.7112 104.353 78.3458 105.067 77.9333C105.12 77.9026 105.174 77.8716 105.228 77.8404C105.958 77.4191 106.766 76.9512 107.658 76.4214C112.878 76.347 117.221 80.4622 117.404 85.7037Z" fill="white" stroke="#3C5D87" stroke-width="1.61134"/><path d="M167.123 94.1637C163.181 87.7341 164.92 81.7781 167.942 79.9249C170.965 78.0717 177.062 79.2227 181.004 85.6523C184.947 92.082 183.207 98.038 180.185 99.8912C177.163 101.744 171.065 100.593 167.123 94.1637ZM165.205 75.4605C158.756 79.4145 157.87 89.0916 162.659 96.9012C167.447 104.711 176.474 108.31 182.922 104.356C189.371 100.402 190.257 90.7245 185.469 82.9149C180.68 75.1054 171.654 71.5064 165.205 75.4605Z" fill="white"/><path d="M167.123 94.1637C163.181 87.7341 164.92 81.7781 167.942 79.9249C170.965 78.0717 177.062 79.2227 181.004 85.6523C184.947 92.082 183.207 98.038 180.185 99.8912C177.163 101.744 171.065 100.593 167.123 94.1637ZM165.205 75.4605C158.756 79.4145 157.87 89.0916 162.659 96.9012C167.447 104.711 176.474 108.31 182.922 104.356C189.371 100.402 190.257 90.7245 185.469 82.9149C180.68 75.1054 171.654 71.5064 165.205 75.4605Z" fill="#3C5D87" fill-opacity="0.3"/><path d="M167.123 94.1637C163.181 87.7341 164.92 81.7781 167.942 79.9249C170.965 78.0717 177.062 79.2227 181.004 85.6523C184.947 92.082 183.207 98.038 180.185 99.8912C177.163 101.744 171.065 100.593 167.123 94.1637ZM165.205 75.4605C158.756 79.4145 157.87 89.0916 162.659 96.9012C167.447 104.711 176.474 108.31 182.922 104.356C189.371 100.402 190.257 90.7245 185.469 82.9149C180.68 75.1054 171.654 71.5064 165.205 75.4605Z" stroke="#3C5D87" stroke-width="1.61134"/><path fill-rule="evenodd" clip-rule="evenodd" d="M129.823 78.6201C131.757 81.0615 135.304 81.4728 137.746 79.5387C143.341 75.1058 147.352 73.5227 150.641 73.8667C153.778 74.1949 158.165 76.513 163.903 84.9291C165.658 87.5026 169.166 88.1665 171.74 86.4119C174.313 84.6573 174.977 81.1487 173.223 78.5752C166.782 69.1279 159.864 63.4907 151.814 62.6486C143.915 61.8223 136.856 65.8538 130.742 70.6974C128.3 72.6315 127.889 76.1786 129.823 78.6201Z" fill="#C29980" stroke="#3C5D87" stroke-width="1.61134" stroke-linecap="round"/><circle cx="117.209" cy="82.3764" r="15.3401" transform="rotate(-2 117.209 82.3764)" fill="#FFE999" stroke="#3C5D87" stroke-width="1.61134"/><path d="M159.915 118.164C156.005 118.382 152.579 117.407 150.209 115.872C147.839 114.336 146.789 112.461 146.693 110.748C146.597 109.036 147.432 107.056 149.617 105.265C151.8 103.476 155.097 102.125 159.007 101.906C162.917 101.688 166.343 102.663 168.712 104.198C171.083 105.734 172.133 107.609 172.229 109.321C172.325 111.034 171.49 113.014 169.305 114.805C167.122 116.594 163.825 117.945 159.915 118.164ZM141.464 111.041C141.676 114.826 143.967 118.067 147.362 120.267C150.758 122.467 155.308 123.666 160.207 123.392C165.107 123.119 169.495 121.42 172.625 118.855C175.754 116.291 177.669 112.815 177.458 109.029C177.246 105.243 174.955 102.003 171.56 99.803C168.164 97.6029 163.614 96.4037 158.714 96.6775C153.815 96.9513 149.427 98.65 146.297 101.215C143.168 103.779 141.253 107.255 141.464 111.041Z" fill="white"/><path d="M159.915 118.164C156.005 118.382 152.579 117.407 150.209 115.872C147.839 114.336 146.789 112.461 146.693 110.748C146.597 109.036 147.432 107.056 149.617 105.265C151.8 103.476 155.097 102.125 159.007 101.906C162.917 101.688 166.343 102.663 168.712 104.198C171.083 105.734 172.133 107.609 172.229 109.321C172.325 111.034 171.49 113.014 169.305 114.805C167.122 116.594 163.825 117.945 159.915 118.164ZM141.464 111.041C141.676 114.826 143.967 118.067 147.362 120.267C150.758 122.467 155.308 123.666 160.207 123.392C165.107 123.119 169.495 121.42 172.625 118.855C175.754 116.291 177.669 112.815 177.458 109.029C177.246 105.243 174.955 102.003 171.56 99.803C168.164 97.6029 163.614 96.4037 158.714 96.6775C153.815 96.9513 149.427 98.65 146.297 101.215C143.168 103.779 141.253 107.255 141.464 111.041Z" fill="#3C5D87" fill-opacity="0.3"/><path d="M159.915 118.164C156.005 118.382 152.579 117.407 150.209 115.872C147.839 114.336 146.789 112.461 146.693 110.748C146.597 109.036 147.432 107.056 149.617 105.265C151.8 103.476 155.097 102.125 159.007 101.906C162.917 101.688 166.343 102.663 168.712 104.198C171.083 105.734 172.133 107.609 172.229 109.321C172.325 111.034 171.49 113.014 169.305 114.805C167.122 116.594 163.825 117.945 159.915 118.164ZM141.464 111.041C141.676 114.826 143.967 118.067 147.362 120.267C150.758 122.467 155.308 123.666 160.207 123.392C165.107 123.119 169.495 121.42 172.625 118.855C175.754 116.291 177.669 112.815 177.458 109.029C177.246 105.243 174.955 102.003 171.56 99.803C168.164 97.6029 163.614 96.4037 158.714 96.6775C153.815 96.9513 149.427 98.65 146.297 101.215C143.168 103.779 141.253 107.255 141.464 111.041Z" stroke="#3C5D87" stroke-width="1.61134"/><path d="M248.283 144.478L175.412 101.795C184.768 117.379 195.766 130.685 207.937 138.812C220.33 147.087 233.91 149.981 248.283 144.478Z" fill="white"/><path d="M248.283 144.478L175.412 101.795C184.768 117.379 195.766 130.685 207.937 138.812C220.33 147.087 233.91 149.981 248.283 144.478Z" fill="#3C5D87" fill-opacity="0.3"/><path d="M248.283 144.478L175.412 101.795C184.768 117.379 195.766 130.685 207.937 138.812C220.33 147.087 233.91 149.981 248.283 144.478Z" stroke="#3C5D87" stroke-width="1.61134"/><path d="M186.855 110.29L234.114 138.078" stroke="white" stroke-width="1.61134" stroke-linecap="round"/><path d="M106.788 11.7713C103.093 19.9312 108.107 30.1734 117.988 34.6479C127.868 39.1224 138.874 36.1348 142.569 27.9749C146.264 19.815 141.25 9.57279 131.37 5.09831C121.489 0.623832 110.484 3.61145 106.788 11.7713Z" fill="#3C5D87"/><path d="M135.384 32.0238C135.655 40.4727 141.493 47.1416 148.422 46.9192C155.352 46.6968 160.749 39.6673 160.478 31.2184C160.207 22.7695 154.37 16.1006 147.44 16.323C140.511 16.5454 135.113 23.5749 135.384 32.0238Z" fill="#3C5D87"/><path d="M94.2363 23.8707C91.9622 31.0649 98.0551 39.4057 107.845 42.5005C117.636 45.5953 127.416 42.2721 129.69 35.078C131.964 27.8838 125.871 19.5429 116.081 16.4481C106.291 13.3533 96.5105 16.6765 94.2363 23.8707Z" fill="#3C5D87"/><path d="M149.323 28.093L115.758 26.2968L114.659 46.8332L148.224 48.6294L149.323 28.093Z" fill="#3C5D87"/><path d="M114.564 44.1267C109.89 43.8766 108.649 46.3413 108.408 50.8362L108.393 71.2392C108.11 76.5206 109.595 81.3722 115.087 81.6661L138.554 83.5676C144.046 83.8615 148.727 79.8183 149.01 74.5369L150.099 54.1903C150.339 49.6954 146.745 45.8489 142.071 45.5987L114.564 44.1267Z" fill="#C29980"/><path d="M116.976 45.6839C112.963 45.4691 109.524 48.5727 109.307 52.6286L108.218 72.9752C107.959 77.8177 111.646 81.9421 116.441 82.1987L139.877 83.4529C144.672 83.7094 148.778 80.002 149.037 75.1596L150.126 54.813C150.343 50.7571 147.255 47.3042 143.241 47.0894L116.976 45.6839Z" stroke="#3C5D87" stroke-width="1.61134"/><path d="M101.876 62.7142C101.725 65.5237 104.075 67.9334 107.125 68.0966C110.174 68.2598 112.768 66.1146 112.918 63.3052C113.068 60.4958 110.718 58.086 107.669 57.9228C104.62 57.7596 102.026 59.9048 101.876 62.7142Z" fill="#C29980"/><path d="M154.118 44.954L149.922 58.0701L139.06 49.6761L108.225 57.5966L106.274 41.8825L154.118 44.954Z" fill="#FFE999" stroke="#3C5D87" stroke-width="1.61134"/><path d="M140.418 41.1271C137.824 33.5727 129.598 29.5512 122.043 32.1448L123.368 36.0028C125.962 43.5572 134.188 47.5787 141.743 44.9851L140.418 41.1271Z" fill="#FFE999"/><path d="M146.23 35.3691C146.92 40.5115 143.311 45.2394 138.168 45.9292L137.816 43.303C137.126 38.1607 140.736 33.4328 145.878 32.7429L146.23 35.3691Z" fill="#FFE999"/><path d="M121.087 60.7974C120.135 63.3098 120.753 66.2215 122.82 66.703C127.312 67.5162 129.855 65.7259 130.807 63.2135C131.759 60.701 130.091 57.4597 127.937 56.6436C125.783 55.8275 122.039 58.2849 121.087 60.7974Z" fill="white"/><path d="M137.292 61.4491C136.562 64.0348 137.767 66.6382 139.984 67.2639C142.2 67.8896 145.364 66.5195 146.094 63.9338C146.824 61.3481 144.843 58.5259 142.627 57.9002C140.41 57.2745 138.022 58.8634 137.292 61.4491Z" fill="white"/><path d="M130.684 63.8001C131.367 61.9386 130.724 59.9903 129.248 59.4485C127.772 58.9067 125.997 59.9779 126.53 62.8262C124.755 65.5574 125.691 66.3239 127.167 66.8657C128.643 67.4076 130.001 65.6617 130.684 63.8001Z" fill="#3C5D87"/><path d="M146.04 64.6425C146.898 62.7655 146.614 60.7962 145.406 60.244C144.198 59.6919 142.272 60.2954 142.411 62.9316C140.489 64.9709 141.091 66.4891 142.299 67.0413C143.508 67.5935 145.182 66.5195 146.04 64.6425Z" fill="#3C5D87"/><path fill-rule="evenodd" clip-rule="evenodd" d="M136.634 65.7189C136.448 66.0176 136.538 66.411 136.837 66.5977C137.095 66.7587 137.377 66.9212 137.638 67.0717C137.801 67.1657 137.956 67.2551 138.092 67.3365C138.477 67.5671 138.785 67.7763 139.017 68.0014C139.24 68.2189 139.377 68.4371 139.439 68.6874C139.502 68.9413 139.504 69.2877 139.356 69.7834C139.209 70.274 138.763 70.6506 138.099 70.8227C137.434 70.9948 136.66 70.9259 136.059 70.624C135.744 70.4659 135.361 70.5929 135.203 70.9077C135.045 71.2224 135.172 71.6057 135.487 71.7637C136.382 72.2134 137.475 72.3017 138.418 72.0574C139.361 71.8132 140.264 71.2 140.578 70.1483C140.773 69.494 140.809 68.9087 140.677 68.3789C140.544 67.8455 140.256 67.428 139.906 67.0877C139.565 66.755 139.151 66.4842 138.747 66.2423C138.568 66.1346 138.398 66.0374 138.232 65.9418C137.995 65.8055 137.763 65.6724 137.513 65.5162C137.214 65.3295 136.821 65.4203 136.634 65.7189Z" fill="#3C5D87"/><path d="M110.094 58.1589C107.323 57.3949 102.627 57.21 102.075 63.1036C102.004 66.3819 104.183 69.104 108.693 68.2174" stroke="#3C5D87" stroke-width="1.61134" stroke-linecap="round"/><path d="M130.871 63.2153C132.976 57.3013 124.653 51.5787 121.147 61.1739" stroke="#3C5D87" stroke-width="1.61134" stroke-linecap="round"/><path d="M146.246 63.9154C147.829 57.8408 139.039 52.8637 136.381 62.7275" stroke="#3C5D87" stroke-width="1.61134" stroke-linecap="round"/><mask id="path-67-outside-1_100_2813" maskUnits="userSpaceOnUse" x="117.367" y="65.9224" width="20.9645" height="17.2989" fill="black"><rect fill="white" x="117.367" y="65.9224" width="20.9645" height="17.2989"/><path d="M122.101 70.4857C123.429 68.7225 125.984 69.2234 127.629 70.6959L127.71 70.7686C129.458 72.3339 131.531 73.4915 133.781 74.1578L-nan -nanL133.781 74.1578C135.423 74.6441 136.051 76.6286 134.658 77.625C134.364 77.8355 134.054 78.0288 133.735 78.1889C131.473 79.3231 127.778 78.7039 126.687 78.4846C126.477 78.4426 126.272 78.3914 126.07 78.3228C125.114 77.9986 122.183 76.8014 121.397 74.0917C120.969 72.6152 121.406 71.4089 122.101 70.4857Z"/></mask><path d="M122.101 70.4857C123.429 68.7225 125.984 69.2234 127.629 70.6959L127.71 70.7686C129.458 72.3339 131.531 73.4915 133.781 74.1578L-nan -nanL133.781 74.1578C135.423 74.6441 136.051 76.6286 134.658 77.625C134.364 77.8355 134.054 78.0288 133.735 78.1889C131.473 79.3231 127.778 78.7039 126.687 78.4846C126.477 78.4426 126.272 78.3914 126.07 78.3228C125.114 77.9986 122.183 76.8014 121.397 74.0917C120.969 72.6152 121.406 71.4089 122.101 70.4857Z" fill="#3C5D87"/><path d="M133.735 78.1889L133.193 77.1086L133.735 78.1889ZM121.397 74.0917L122.558 73.755L121.397 74.0917ZM127.71 70.7686L128.516 69.8683L128.516 69.8683L127.71 70.7686ZM134.658 77.625L135.361 78.6079L134.658 77.625ZM126.687 78.4846L126.449 79.6695L126.687 78.4846ZM126.07 78.3228L126.458 77.1783L126.07 78.3228ZM122.101 70.4857L123.067 71.2127L122.101 70.4857ZM127.629 70.6959L126.822 71.5962L126.822 71.5962L127.629 70.6959ZM133.955 76.6421C133.701 76.8237 133.445 76.9821 133.193 77.1086L134.276 79.2692C134.662 79.0755 135.026 78.8474 135.361 78.6079L133.955 76.6421ZM122.558 73.755C122.26 72.7282 122.542 71.9096 123.067 71.2127L121.136 69.7587C120.27 70.9083 119.678 72.5021 120.237 74.4285L122.558 73.755ZM126.822 71.5962L126.903 71.6688L128.516 69.8683L128.435 69.7956L126.822 71.5962ZM133.193 77.1086C132.335 77.5386 131.093 77.675 129.808 77.6364C128.559 77.5988 127.435 77.4024 126.925 77.2998L126.449 79.6695C127.029 79.7861 128.299 80.009 129.735 80.0523C131.137 80.0945 132.872 79.9734 134.276 79.2692L133.193 77.1086ZM126.458 77.1783C126.041 77.0369 125.19 76.7025 124.372 76.1183C123.552 75.533 122.849 74.759 122.558 73.755L120.237 74.4285C120.731 76.1341 121.886 77.3135 122.967 78.0854C124.05 78.8582 125.143 79.2846 125.682 79.4673L126.458 77.1783ZM126.903 71.6688C128.785 73.3535 131.017 74.5994 133.438 75.3165L134.124 72.999C132.046 72.3835 130.13 71.3142 128.516 69.8683L126.903 71.6688ZM135.361 78.6079C136.498 77.7942 136.836 76.5137 136.522 75.3786C136.221 74.285 135.335 73.3577 134.124 72.999L133.438 75.3165C133.869 75.4441 134.118 75.7522 134.193 76.0216C134.229 76.1522 134.222 76.2626 134.193 76.3488C134.166 76.4287 134.106 76.5338 133.955 76.6421L135.361 78.6079ZM126.925 77.2998C126.751 77.2649 126.598 77.2259 126.458 77.1783L125.682 79.4673C125.946 79.5568 126.203 79.6202 126.449 79.6695L126.925 77.2998ZM123.067 71.2127C123.433 70.7259 123.962 70.5216 124.64 70.5813C125.353 70.644 126.165 71.0075 126.822 71.5962L128.435 69.7956C127.448 68.9118 126.16 68.2886 124.852 68.1736C123.51 68.0554 122.097 68.4823 121.136 69.7587L123.067 71.2127Z" fill="#3C5D87" mask="url(#path-67-outside-1_100_2813)"/><path d="M121.226 71.5088L121.421 71.103C121.577 70.7795 121.764 70.4818 121.969 70.2101L121.226 71.5088ZM121.226 71.5088L121.559 71.812M121.226 71.5088L121.559 71.812M121.559 71.812C121.851 72.0784 122.187 72.3062 122.561 72.484L121.559 71.812ZM128.463 70.4062L128.463 70.4062C129.521 71.3539 130.704 72.1462 131.974 72.7631L132.691 73.1109L132.163 73.7071C130.872 75.1656 128.727 75.6622 126.878 74.784L126.878 74.784C125.977 74.3557 125.284 73.6651 124.848 72.8476C124.092 72.9459 123.3 72.8352 122.561 72.484L128.463 70.4062ZM128.463 70.4062L128.382 70.3336C128.382 70.3336 128.382 70.3336 128.382 70.3336M128.463 70.4062L128.382 70.3336M128.382 70.3336C127.477 69.5235 126.308 68.9652 125.15 68.8633M128.382 70.3336L125.15 68.8633M125.15 68.8633C123.973 68.7598 122.782 69.131 121.969 70.21L125.15 68.8633Z" fill="white" stroke="#3C5D87" stroke-width="1.2085"/><path d="M107.721 40.8224L109.048 50.6562" stroke="white" stroke-width="1.61134" stroke-linecap="round"/><path fill-rule="evenodd" clip-rule="evenodd" d="M111.575 43.0031L106.034 42.7502L105.328 38.5646L111.195 40.8231L111.575 43.0031Z" fill="#3C5D87"/><path d="M204.215 162.044C223.367 142.716 252.483 106.828 269.159 76.6366C270.055 75.0132 270.504 74.2015 271.25 73.8098C271.996 73.418 272.902 73.5082 274.714 73.6884L333.921 79.5784C336.545 79.8394 337.857 79.9699 338.587 81.1558C339.317 82.3416 338.881 83.4691 338.011 85.724C331.139 103.52 305.936 152.889 286.033 178.303C283.585 181.429 282.36 182.992 280.295 183.786C278.229 184.579 276.091 184.206 271.816 183.458L207.289 172.181C202.248 171.3 199.727 170.859 199.211 169.237C198.694 167.615 200.534 165.758 204.215 162.044Z" fill="#FFD9AB"/><path d="M213.174 161.594C227.667 148.995 257.241 112.545 272.176 84.3016L327.433 89.6002C326.364 96.9862 296.812 152.978 278.515 172.844L213.174 161.594Z" fill="#3C5D87" stroke="#3C5D87" stroke-width="1.61134"/><path d="M335.794 80.9013L271.526 74.5339C256.21 106.893 211.224 160.622 199.258 168.22" stroke="white" stroke-width="1.61134" stroke-linecap="round"/><path d="M204.389 162.383C223.541 143.055 252.658 107.167 269.333 76.9755C270.23 75.3521 270.678 74.5403 271.424 74.1486C272.17 73.7569 273.076 73.847 274.888 74.0273L334.095 79.9173C336.719 80.1783 338.031 80.3088 338.761 81.4946C339.491 82.6805 339.055 83.8079 338.185 86.0629C331.313 103.859 306.11 153.228 286.207 178.642C283.759 181.768 282.534 183.331 280.469 184.125C278.403 184.918 276.265 184.544 271.99 183.797L207.463 172.52C202.422 171.639 199.901 171.198 199.385 169.576C198.868 167.954 200.708 166.097 204.389 162.383Z" stroke="#3C5D87" stroke-width="1.61134"/><path d="M287.725 135.143C284.793 139.295 280.874 142.123 276.937 143.362C273.001 144.601 269.096 144.244 266.083 142.116C263.069 139.988 261.426 136.427 261.277 132.303C261.127 128.179 262.481 123.539 265.413 119.388C268.344 115.236 272.264 112.408 276.201 111.169C280.137 109.93 284.042 110.288 287.055 112.415C290.069 114.543 291.712 118.104 291.861 122.228C292.011 126.352 290.657 130.992 287.725 135.143Z" fill="#FFD9AB" stroke="#3C5D87" stroke-width="1.61134"/><path d="M286.237 113.82C282.944 111.369 275.763 110.096 267.656 119.04C264.636 122.686 260.366 130.868 264.563 138.393" stroke="white" stroke-width="1.61134" stroke-linecap="round"/><path d="M260.292 158.208C258.955 159.805 257.27 160.815 255.656 161.182C254.042 161.548 252.547 161.268 251.473 160.369C250.399 159.469 249.86 158.047 249.937 156.394C250.015 154.74 250.713 152.904 252.05 151.307C253.388 149.71 255.072 148.7 256.687 148.333C258.301 147.966 259.795 148.247 260.869 149.146C261.944 150.046 262.482 151.468 262.405 153.121C262.328 154.774 261.629 156.61 260.292 158.208Z" fill="#FFD9AB" stroke="#3C5D87" stroke-width="1.61134"/><path d="M296.814 102.865C295.477 104.462 293.792 105.472 292.178 105.839C290.564 106.205 289.069 105.925 287.995 105.026C286.921 104.126 286.382 102.704 286.46 101.051C286.537 99.3971 287.235 97.5612 288.572 95.9639C289.91 94.3667 291.595 93.3567 293.209 92.9899C294.823 92.6233 296.317 92.9036 297.392 93.8031C298.466 94.7026 299.004 96.1246 298.927 97.7777C298.85 99.4315 298.152 101.267 296.814 102.865Z" fill="#FFD9AB" stroke="#3C5D87" stroke-width="1.61134"/><path d="M326.734 95.1151C324.869 96.2425 322.886 96.6954 321.213 96.5596C319.539 96.4237 318.257 95.7149 317.584 94.6013C316.911 93.4878 316.879 92.024 317.537 90.478C318.194 88.9337 319.516 87.3882 321.381 86.2609C323.246 85.1335 325.229 84.6807 326.902 84.8164C328.576 84.9523 329.857 85.6611 330.531 86.7747C331.204 87.8882 331.236 89.352 330.578 90.898C329.921 92.4423 328.599 93.9878 326.734 95.1151Z" fill="#FFD9AB" stroke="#FFD9AB" stroke-width="2.01417"/><path d="M318.487 88.489C311.74 94.0167 317.271 99.2345 325.342 96.0568" stroke="#3C5D87" stroke-width="1.61134"/><path d="M270.106 88.3786C271.85 90.241 275.104 90.7307 277.379 89.4387C279.655 88.1466 280.051 85.5843 278.307 83.7218C276.564 81.8594 273.31 81.3697 271.035 82.6618C268.759 83.9538 268.363 86.5162 270.106 88.3786Z" fill="#FFD9AB" stroke="#FFD9AB" stroke-width="2.01417"/><path d="M279.114 84.6418C283.128 90.5785 272.838 94.8543 269.708 88.2148" stroke="#3C5D87" stroke-width="1.61134"/><path d="M281.796 169.711C279.893 167.213 276.671 166.296 274.696 167.166C272.721 168.036 272.165 170.618 274.068 173.116C275.971 175.614 279.193 176.532 281.168 175.662C283.143 174.792 283.7 172.21 281.796 169.711Z" fill="#FFD9AB" stroke="#FFD9AB" stroke-width="2.01417"/><path d="M273.354 172.294C269.962 165.981 279.382 162.592 281.824 169.514" stroke="#3C5D87" stroke-width="1.61134"/><path d="M220.911 164.22C223.087 163.327 224.849 161.983 225.949 160.584C227.063 159.167 227.392 157.854 227.101 156.872C226.81 155.891 225.859 155.103 224.237 154.807C222.636 154.516 220.547 154.751 218.37 155.643C216.194 156.536 214.433 157.88 213.333 159.279C212.219 160.696 211.89 162.009 212.181 162.991C212.471 163.972 213.423 164.76 215.044 165.056C216.645 165.347 218.735 165.112 220.911 164.22Z" fill="#FFD9AB" stroke="#FFD9AB" stroke-width="2.01417"/><path d="M220.019 154.841C229.072 152.341 232.033 160.929 223.055 163.354" stroke="#3C5D87" stroke-width="1.61134"/><path d="M102.293 87.2056L103.497 89.286L98.7103 92.0584L97.5054 89.978L102.293 87.2056Z" fill="#3C5D87"/><path fill-rule="evenodd" clip-rule="evenodd" d="M91.8397 127.654C88.9342 117.868 86.2785 104.761 88.0501 92.5855L111.57 96.0078C110.54 103.086 112.056 112.241 114.624 120.889C115.86 125.053 117.246 128.79 118.445 131.678C119.044 133.119 119.581 134.313 120.01 135.211C120.378 135.978 120.118 136.944 119.391 137.386L102.472 147.69C101.332 148.384 99.8519 148.021 99.2457 146.832C97.204 142.827 94.2379 135.731 91.8397 127.654Z" fill="#3C5D87"/><path fill-rule="evenodd" clip-rule="evenodd" d="M113.894 84.743C117.006 84.6105 119.636 87.0258 119.768 90.1377C120.072 97.27 121.496 101.34 123.906 103.604C126.205 105.763 130.828 107.568 140.947 106.408C144.042 106.054 146.838 108.275 147.193 111.369C147.547 114.464 145.326 117.26 142.232 117.614C130.872 118.916 122.084 117.367 116.184 111.825C110.395 106.388 108.831 98.4105 108.499 90.6174C108.367 87.5055 110.782 84.8754 113.894 84.743Z" fill="#C29980" stroke="#3C5D87" stroke-width="1.61134" stroke-linecap="round"/><path fill-rule="evenodd" clip-rule="evenodd" d="M111.935 147.747C111.874 146.318 112.984 145.11 114.413 145.049C117.417 144.922 119.846 144.135 122.837 141.349C123.884 140.374 125.523 140.433 126.498 141.479C127.473 142.526 127.414 144.165 126.367 145.14C122.45 148.788 118.839 150.046 114.632 150.225C113.203 150.285 111.995 149.176 111.935 147.747Z" fill="#FFD9AB" stroke="#3C5D87" stroke-width="1.61134" stroke-linecap="round"/><path d="M264.739 106.687L186.672 109.413C200.921 100.965 215.475 94.8278 228.977 92.7698C243.301 90.5864 256.379 92.9986 266.706 102.046C267.668 102.889 267.811 103.997 267.422 104.924C267.025 105.867 266.065 106.64 264.739 106.687Z" fill="white"/><path d="M264.739 106.687L186.672 109.413C200.921 100.965 215.475 94.8278 228.977 92.7698C243.301 90.5864 256.379 92.9986 266.706 102.046C267.668 102.889 267.811 103.997 267.422 104.924C267.025 105.867 266.065 106.64 264.739 106.687Z" fill="#3C5D87" fill-opacity="0.3"/><path d="M264.739 106.687L186.672 109.413C200.921 100.965 215.475 94.8278 228.977 92.7698C243.301 90.5864 256.379 92.9986 266.706 102.046C267.668 102.889 267.811 103.997 267.422 104.924C267.025 105.867 266.065 106.64 264.739 106.687Z" stroke="#3C5D87" stroke-width="1.61134"/><path d="M177.067 110.574L173.778 101.553C183.307 106.522 196.587 103.957 205.699 100.023L200.969 108.99L177.067 110.574Z" fill="white"/><path d="M177.067 110.574L173.778 101.553C183.307 106.522 196.587 103.957 205.699 100.023L200.969 108.99L177.067 110.574Z" fill="#3C5D87" fill-opacity="0.3"/><path d="M177.067 110.574L173.778 101.553C183.307 106.522 196.587 103.957 205.699 100.023L200.969 108.99L177.067 110.574Z" stroke="#3C5D87" stroke-width="1.61134" stroke-linecap="round"/><path d="M171.854 101.205L175.712 103.34L178.246 109.645C176.582 109.838 176.754 109.933 176.385 111.921L171.854 101.205Z" fill="white"/><path d="M171.854 101.205L175.712 103.34L178.246 109.645C176.582 109.838 176.754 109.933 176.385 111.921L171.854 101.205Z" fill="#3C5D87" fill-opacity="0.3"/><path d="M198.965 103.292L209.419 99.3243L203.086 108.28L198.548 108.34L198.965 103.292Z" fill="white"/><path d="M198.965 103.292L209.419 99.3243L203.086 108.28L198.548 108.34L198.965 103.292Z" fill="#3C5D87" fill-opacity="0.3"/><g opacity="0.2"><path d="M226.397 83.0887L217.507 69.7548" stroke="#3C5D87" stroke-width="2.61216" stroke-linecap="round"/><path d="M243.539 81.9995L251.381 68.0237" stroke="#3C5D87" stroke-width="2.61216" stroke-linecap="round"/><path d="M234.631 79.026L233.733 63.2537" stroke="#3C5D87" stroke-width="2.61216" stroke-linecap="round"/></g><path d="M96.7423 84.0825C92.2059 86.9061 89.6531 90.1239 89.5887 98.2375C89.3122 113.543 94.5092 133.616 100.836 144.89" stroke="white" stroke-width="1.61134" stroke-linecap="round"/><path d="M193.861 105.152C197.686 105.257 211.647 98.9919 218.228 97.1004C224.656 94.7988 234.853 93.3348 245.136 94.3605C251.687 95.3036 256.045 96.5673 263.997 102.303" stroke="white" stroke-width="1.61134" stroke-linecap="round"/><defs><clipPath id="clip0_100_2813"><rect x="0.666687" y="40.001" width="405.33" height="128" rx="12" fill="white"/></clipPath></defs></svg>