<svg width="406" height="208" viewBox="0 0 406 208" fill="none" xmlns="http://www.w3.org/2000/svg"><rect opacity="0.25" x="0.333374" y="40.001" width="405.33" height="128" rx="12" fill="#FFD9AB"/><g clip-path="url(#clip0_100_2692)"><g opacity="0.6"><path d="M33.0004 51.501C33.0004 42.3883 40.3877 35.001 49.5004 35.001H87.5004C96.6131 35.001 104 42.3883 104 51.501C104 60.6137 96.6131 68.001 87.5004 68.001H49.5004C40.3877 68.001 33.0004 60.6137 33.0004 51.501Z" fill="white"/><path d="M113 43.501C113 38.2543 117.254 34.001 122.5 34.001H144.5C149.747 34.001 154 38.2543 154 43.501C154 48.7477 149.747 53.001 144.5 53.001H122.5C117.254 53.001 113 48.7477 113 43.501Z" fill="white"/><path d="M262 59.001C262 54.5827 265.582 51.001 270 51.001H289C293.419 51.001 297 54.5827 297 59.001C297 63.4193 293.419 67.001 289 67.001H270C265.582 67.001 262 63.4193 262 59.001Z" fill="white"/></g><g opacity="0.3"><path d="M329.333 61.501C329.333 45.1234 329.333 36.9345 333.163 30.9956C335.014 28.1244 337.457 25.6815 340.328 23.8302C346.267 20.001 354.456 20.001 370.833 20.001H378.833C395.211 20.001 403.4 20.001 409.339 23.8302C412.21 25.6815 414.653 28.1244 416.504 30.9956C420.333 36.9345 420.333 45.1234 420.333 61.501C420.333 77.8786 420.333 86.0674 416.504 92.0064C414.653 94.8776 412.21 97.3205 409.339 99.1717C403.4 103.001 395.211 103.001 378.833 103.001H370.833C354.456 103.001 346.267 103.001 340.328 99.1717C337.457 97.3205 335.014 94.8776 333.163 92.0064C329.333 86.0674 329.333 77.8786 329.333 61.501Z" fill="#FFD9AB"/><path d="M0.000366211 136.501C0.000366211 125.788 0.000366211 120.431 1.67995 116.181C4.11945 110.007 9.00671 105.12 15.18 102.681C19.4303 101.001 24.787 101.001 35.5004 101.001C46.2138 101.001 51.5705 101.001 55.8207 102.681C61.994 105.12 66.8813 110.007 69.3208 116.181C71.0004 120.431 71.0004 125.788 71.0004 136.501V148.501C71.0004 159.214 71.0004 164.571 69.3208 168.821C66.8813 174.995 61.994 179.882 55.8207 182.321C51.5705 184.001 46.2138 184.001 35.5004 184.001C24.787 184.001 19.4303 184.001 15.18 182.321C9.00671 179.882 4.11945 174.995 1.67995 168.821C0.000366211 164.571 0.000366211 159.214 0.000366211 148.501V136.501Z" fill="#FFD9AB"/><path d="M61.0004 156.501C61.0004 151.389 61.0004 148.833 61.465 146.715C63.1376 139.092 69.0913 133.138 76.7142 131.466C78.8321 131.001 81.3882 131.001 86.5004 131.001C91.6126 131.001 94.1687 131.001 96.2866 131.466C103.909 133.138 109.863 139.092 111.536 146.715C112 148.833 112 151.389 112 156.501V158.501C112 163.613 112 166.169 111.536 168.287C109.863 175.91 103.909 181.864 96.2866 183.536C94.1687 184.001 91.6126 184.001 86.5004 184.001C81.3882 184.001 78.8321 184.001 76.7142 183.536C69.0913 181.864 63.1376 175.91 61.465 168.287C61.0004 166.169 61.0004 163.613 61.0004 158.501V156.501Z" fill="#FFD9AB"/><path d="M221 162.501C221 161.108 221 160.412 221.035 159.824C221.632 149.705 229.704 141.632 239.823 141.036C240.411 141.001 241.108 141.001 242.5 141.001H290.5C291.893 141.001 292.59 141.001 293.178 141.036C303.297 141.632 311.369 149.705 311.966 159.824C312 160.412 312 161.108 312 162.501C312 163.894 312 164.59 311.966 165.178C311.369 175.297 303.297 183.37 293.178 183.966C292.59 184.001 291.893 184.001 290.5 184.001H242.5C241.108 184.001 240.411 184.001 239.823 183.966C229.704 183.37 221.632 175.297 221.035 165.178C221 164.59 221 163.894 221 162.501Z" fill="#FFD9AB"/><path d="M362.333 106.001C362.333 102.23 362.333 100.344 363.505 99.1725C364.677 98.001 366.562 98.001 370.333 98.001H380.333C384.105 98.001 385.99 98.001 387.162 99.1725C388.333 100.344 388.333 102.23 388.333 106.001V193.001C388.333 196.772 388.333 198.658 387.162 199.829C385.99 201.001 384.105 201.001 380.333 201.001H370.333C366.562 201.001 364.677 201.001 363.505 199.829C362.333 198.658 362.333 196.772 362.333 193.001V106.001Z" fill="#FFD9AB"/></g></g><g opacity="0.7"><path d="M71.0004 177.501C71.0004 176.108 71.0004 175.412 71.0305 174.823C71.6343 163.047 81.0464 153.635 92.8228 153.031C93.4112 153.001 94.1076 153.001 95.5004 153.001C96.8932 153.001 97.5895 153.001 98.178 153.031C109.954 153.635 119.366 163.047 119.97 174.823C120 175.412 120 176.108 120 177.501V196.001H71.0004V177.501Z" fill="#FFD9AB"/><path d="M55.0004 187.433C55.0004 180.567 60.5666 175.001 67.4328 175.001H68.5004C75.9562 175.001 82.0004 181.045 82.0004 188.501V195.001H62.5679C58.3885 195.001 55.0004 191.613 55.0004 187.433Z" fill="#FFD9AB"/><path d="M165 190.501C165 183.045 171.045 177.001 178.5 177.001C185.956 177.001 192 183.045 192 190.501V194.001H165V190.501Z" fill="#FFD9AB"/><path d="M185 190.46C185 186.341 188.34 183.001 192.46 183.001H193.541C197.661 183.001 201 186.341 201 190.46C201 192.968 198.967 195.001 196.46 195.001H189.541C187.033 195.001 185 192.968 185 190.46Z" fill="#FFD9AB"/><path d="M106 186.677C106 179.124 112.123 173.001 119.676 173.001H123.325C130.878 173.001 137 179.124 137 186.677C137 191.274 133.273 195.001 128.676 195.001H114.325C109.727 195.001 106 191.274 106 186.677Z" fill="#FFD9AB"/><path d="M125 186.001C125 173.851 134.85 164.001 147 164.001C159.151 164.001 169 173.851 169 186.001V194.001H125V186.001Z" fill="#FFD9AB"/></g><g opacity="0.7"><path d="M320 191.501C320 186.254 324.254 182.001 329.5 182.001C334.747 182.001 339 186.254 339 191.501V195.001H320V191.501Z" fill="#FFD9AB"/><path d="M337 191.501C337 189.016 339.015 187.001 341.5 187.001C343.986 187.001 346 189.016 346 191.501V191.974C346 193.646 344.645 195.001 342.973 195.001H340.027C338.356 195.001 337 193.646 337 191.974V191.501Z" fill="#FFD9AB"/><path d="M299 190.801C299 186.493 302.493 183.001 306.8 183.001H308.541C312.661 183.001 316 186.341 316 190.46C316 192.968 313.968 195.001 311.46 195.001H303.2C300.881 195.001 299 193.121 299 190.801Z" fill="#FFD9AB"/><path d="M308 187.19C308 181.011 313.01 176.001 319.19 176.001H320.811C326.991 176.001 332 181.011 332 187.19C332 190.952 328.951 194.001 325.19 194.001H314.811C311.05 194.001 308 190.952 308 187.19Z" fill="#FFD9AB"/></g><path d="M44.9994 195.001L359.999 195.001" stroke="#3C5D87" stroke-width="2" stroke-linecap="round"/><path d="M36.9994 195.001L39.9994 195.001" stroke="#3C5D87" stroke-width="2" stroke-linecap="round"/><path d="M364.999 195.001L367.999 195.001" stroke="#3C5D87" stroke-width="2" stroke-linecap="round"/><g opacity="0.2"><path d="M45.3334 25.001L110.333 25.001" stroke="#3C5D87" stroke-width="2" stroke-linecap="round"/><path d="M35.3334 25.001L38.3334 25.001" stroke="#3C5D87" stroke-width="2" stroke-linecap="round"/><path d="M89.3334 32.001L124.333 32.001" stroke="#3C5D87" stroke-width="2" stroke-linecap="round"/><path d="M59.3334 32.001L74.3334 32.001" stroke="#3C5D87" stroke-width="2" stroke-linecap="round"/><path d="M109.333 79.001L154.333 79.001" stroke="#3C5D87" stroke-width="2" stroke-linecap="round"/><path d="M85.3334 79.001L93.3334 79.001" stroke="#3C5D87" stroke-width="2" stroke-linecap="round"/><path d="M91.3334 128.001L146.333 128.001" stroke="#3C5D87" stroke-width="2" stroke-linecap="round"/><path d="M56.3334 128.001L81.3334 128.001" stroke="#3C5D87" stroke-width="2" stroke-linecap="round"/><path d="M43.3334 117.001L88.3334 117.001" stroke="#3C5D87" stroke-width="2" stroke-linecap="round"/><path d="M95.3334 117.001L100.333 117.001" stroke="#3C5D87" stroke-width="2" stroke-linecap="round"/></g><path fill-rule="evenodd" clip-rule="evenodd" d="M226.396 129.21C225.767 127.761 226.432 126.075 227.882 125.446C230.93 124.124 233.122 122.35 235.102 118.291C235.795 116.871 237.508 116.281 238.928 116.974C240.348 117.667 240.938 119.38 240.245 120.8C237.652 126.115 234.428 128.844 230.16 130.696C228.711 131.325 227.026 130.66 226.396 129.21Z" fill="#FFD9AB" stroke="#3C5D87" stroke-width="1.80233" stroke-linecap="round"/><path fill-rule="evenodd" clip-rule="evenodd" d="M201.555 154.191C202.494 152.92 204.285 152.65 205.557 153.589C208.229 155.562 210.863 156.569 215.368 156.247C216.944 156.134 218.313 157.32 218.426 158.897C218.539 160.473 217.352 161.842 215.776 161.955C209.878 162.377 205.9 160.956 202.158 158.193C200.886 157.254 200.617 155.463 201.555 154.191Z" fill="#FFD9AB" stroke="#3C5D87" stroke-width="1.80233" stroke-linecap="round"/><path fill-rule="evenodd" clip-rule="evenodd" d="M198.715 101.22C199.872 100.711 201.223 101.236 201.732 102.393L204.497 108.679C204.664 109.056 204.829 109.432 204.995 109.806C208.917 118.69 212.465 126.725 210.959 140.954L210.237 147.784C210.104 149.041 208.977 149.952 207.72 149.819L194.061 148.374C192.804 148.241 191.893 147.114 192.026 145.857L192.748 139.028C193.737 129.677 191.862 125.421 188.105 116.893C187.984 116.618 187.861 116.338 187.735 116.054L184.97 109.768C184.461 108.611 184.986 107.26 186.143 106.751L198.715 101.22Z" fill="#3C5D87" stroke="#3C5D87" stroke-width="1.52607" stroke-linecap="square"/><path d="M176.695 124.874C168.44 125.357 160.514 121.058 159.317 112.724C158.053 103.932 164.156 95.7809 172.948 94.5176C179.382 93.5931 185.221 95.8858 188.772 101.746L200.29 95.9507C205.772 93.5172 210.693 95.2541 214.505 99.884L226.345 115.78C227.149 116.756 226.801 118.143 226.033 119.002L218.499 129.542C217.523 130.345 215.972 129.45 215.169 128.474L203.574 114.704C189.429 121.714 183.153 124.745 176.695 124.874Z" fill="#3C5D87"/><path d="M167.636 95.823C164.543 97.2264 159.164 103.544 159.922 110.271" stroke="white" stroke-width="1.0301" stroke-linecap="round"/><path d="M188.632 101.246L195.27 97.8886" stroke="white" stroke-width="1.0301" stroke-linecap="round"/><path d="M175.562 125.036C167.307 125.519 159.92 119.601 158.723 111.266C157.459 102.475 163.562 94.3233 172.354 93.0601C178.788 92.1356 184.879 95.1563 188.179 100.289L199.696 94.4932C205.178 92.0597 211.609 93.5796 215.422 98.2094L229.098 116.154C229.901 117.13 229.762 118.573 228.786 119.377L218.4 129.618C217.424 130.422 215.982 130.282 215.178 129.306L203.197 114.757C189.052 121.767 182.021 124.907 175.562 125.036Z" stroke="#3C5D87" stroke-width="1.80233" stroke-linecap="square"/><path d="M164.955 91.0181L185.361 91.7803L185.161 97.1337L164.755 96.3715L164.955 91.0181Z" fill="white"/><path d="M169.243 91.4845L171.519 91.5695L171.323 96.8051L169.048 96.7201L169.243 91.4845Z" fill="#3C5D87"/><path d="M177.543 91.7009L179.818 91.7859L179.617 97.1705L177.342 97.0855L177.543 91.7009Z" fill="#3C5D87"/><path d="M184.847 92.7296L184.711 96.3698" stroke="#3C5D87" stroke-width="1.52607" stroke-linecap="square"/><path d="M165.142 91.9945L165.004 95.7039" stroke="#3C5D87" stroke-width="1.52607" stroke-linecap="square"/><path d="M194.426 42.0287C194.219 42.2386 194.027 42.468 193.851 42.7164L186.504 53.108C184.756 55.5803 185.343 59.0014 187.816 60.7493C190.288 62.4972 193.709 61.91 195.457 59.4378L202.712 49.1759C202.919 48.9659 203.111 48.7365 203.287 48.4881L210.634 38.0965C210.715 37.9815 210.792 37.8645 210.863 37.7456L215.68 36.9273C216.768 36.7425 217.5 35.7105 217.316 34.6223C217.131 33.5342 216.099 32.8019 215.011 32.9867L213.128 33.3065L216.678 31.6257C217.675 31.1533 218.101 29.9617 217.629 28.9641C217.156 27.9665 215.965 27.5408 214.967 28.0132L211.206 29.7942L213.626 27.7574C214.471 27.0467 214.579 25.786 213.868 24.9415C213.158 24.097 211.897 23.9885 211.053 24.6992L207.334 27.8285L207.452 26.8312C207.599 25.5849 206.707 24.4554 205.461 24.3085C204.215 24.1615 203.085 25.0527 202.938 26.299L202.39 30.9475C202.132 31.192 201.894 31.4654 201.681 31.7668L194.426 42.0287Z" fill="#C29980"/><path d="M206.99 27.7711L210.484 24.6248C211.703 23.473 213.732 24.7011 213.046 26.6878" stroke="#C29980" stroke-width="2.20521" stroke-linecap="round"/><path d="M210.759 29.8728L214.856 27.8197C216.3 27.0526 217.89 28.7316 216.731 30.4212" stroke="#C29980" stroke-width="1.14455" stroke-linecap="round"/><path d="M212.803 33.5096L215.025 33.0333C216.609 32.6283 217.758 34.6347 216.233 36.0034" stroke="#C29980" stroke-width="1.14455" stroke-linecap="round"/><path d="M205.073 22.8769C206.439 23.038 207.5 24.0445 207.793 25.3118L209.978 23.4731C211.204 22.4419 213.033 22.5993 214.064 23.8246C214.703 24.5841 214.886 25.5757 214.64 26.4654C215.95 26.1438 217.349 26.7751 217.949 28.0418C218.635 29.4892 218.017 31.2181 216.569 31.9035L216.413 31.9774C217.078 32.4026 217.567 33.0958 217.71 33.9348C217.978 35.5136 216.916 37.011 215.337 37.2792L210.91 38.0311C210.899 38.0475 210.887 38.0638 210.876 38.0801L203.529 48.4717C203.34 48.7389 203.134 48.9875 202.913 49.2171L195.699 59.4214C193.663 62.3 189.68 62.9837 186.801 60.9485C183.923 58.9133 183.239 54.9298 185.274 52.0512L192.621 41.6595C192.81 41.3924 193.016 41.1437 193.237 40.9142L200.451 30.7099C200.632 30.4545 200.828 30.2161 201.038 29.9951L201.549 25.6568C201.755 23.9163 203.332 22.6716 205.073 22.8769Z" stroke="#3C5D87" stroke-width="1.80233"/><path d="M208.901 32.902C206.081 32.0394 204.869 34.001 204.869 34.001" stroke="#3C5D87" stroke-width="1.02038" stroke-linecap="round"/><path d="M184.536 71.9465L167.161 71.2975L166.911 77.9899C163.839 79.9071 161.742 83.2648 161.596 87.1559C161.505 89.6047 162.696 91.6371 165.145 91.7286L185.335 92.4827C187.783 92.5742 189.843 90.6632 189.934 88.2144C190.096 83.8921 187.806 80.0466 184.309 78.0173L184.536 71.9465Z" fill="#FFE999" stroke="#3C5D87" stroke-width="1.80233"/><path fill-rule="evenodd" clip-rule="evenodd" d="M216.774 52.4723C216.632 50.8984 217.792 49.5072 219.366 49.365L231.243 48.2915C232.598 48.169 233.885 48.9054 234.467 50.1354L255.418 94.4585C257.089 97.9933 252.233 100.918 249.89 97.7872L227.554 67.9382L220.462 76.272C219.438 77.4755 217.632 77.6208 216.428 76.5966C215.225 75.5725 215.08 73.7666 216.104 72.5631L225.209 61.8638C226.557 60.2792 229.028 60.3566 230.275 62.0226L239.726 74.6532L230.033 54.147L219.881 55.0645C218.308 55.2068 216.916 54.0462 216.774 52.4723Z" fill="#FFD9AB" stroke="#3C5D87" stroke-width="1.80233" stroke-linecap="round"/><path fill-rule="evenodd" clip-rule="evenodd" d="M212.453 78.8177C216.716 81.0522 221.909 80.1146 223.191 75.7502C224.077 70.9479 222.018 68.127 217.977 66.7516C213.556 65.6052 210.123 66.9286 206.195 69.6769L193.997 78.2119L177.073 78.1185C174.011 78.1016 171.277 81.3226 171.357 84.7259C171.436 88.1293 173.633 89.5378 177.301 90.0215L194.401 90.9583C196.441 90.9696 198.425 90.344 200.128 89.1528L212.453 78.8177Z" fill="#C29980"/><path fill-rule="evenodd" clip-rule="evenodd" d="M212.4 79.2325C216.622 81.1766 222.064 80.6127 223.465 75.2105C224.419 70.8849 221.878 67.7934 218.315 67.0639C213.92 66.0993 210.475 67.338 206.515 69.8636L194.217 77.7068L177.33 77.8709C174.275 77.9006 171.499 80.8332 171.529 83.8883C171.559 86.9434 173.948 89.6867 177.601 90.0673L194.65 90.658C196.686 90.6382 198.675 90.0474 200.392 88.9527L212.4 79.2325Z" stroke="#3C5D87" stroke-width="1.80233" stroke-linecap="round"/><path fill-rule="evenodd" clip-rule="evenodd" d="M286.337 91.8004C262.388 88.9776 250.563 104.185 247.676 111.686C246.919 113.652 244.711 114.633 242.745 113.876C240.778 113.119 239.798 110.911 240.555 108.945C244.377 99.0138 259.013 80.8967 287.23 84.2225C289.322 84.4692 290.819 86.3655 290.572 88.4581C290.326 90.5506 288.429 92.047 286.337 91.8004Z" fill="#FFD9AB" stroke="#3C5D87" stroke-width="1.80233" stroke-linecap="round"/><path fill-rule="evenodd" clip-rule="evenodd" d="M156.71 126.319C157.085 124.246 159.07 122.869 161.143 123.244L180.165 126.686C182.238 127.062 183.615 129.047 183.239 131.12C182.864 133.193 180.879 134.57 178.806 134.195L159.785 130.753C157.711 130.377 156.335 128.392 156.71 126.319Z" fill="#FFD9AB" stroke="#3C5D87" stroke-width="1.80233" stroke-linecap="round"/><circle cx="280.074" cy="128.262" r="27.4646" transform="rotate(-8.17661 280.074 128.262)" fill="#3C5D87" stroke="#3C5D87" stroke-width="6.48579"/><circle cx="280.073" cy="128.262" r="20.0796" transform="rotate(-8.17661 280.073 128.262)" fill="white" stroke="#3C5D87" stroke-width="4.95972"/><circle cx="280.074" cy="128.262" r="27.4646" transform="rotate(-8.17661 280.074 128.262)" fill="#3C5D87" stroke="#3C5D87" stroke-width="6.48579"/><circle cx="280.073" cy="128.262" r="20.0796" transform="rotate(-8.17661 280.073 128.262)" fill="white" stroke="#3C5D87" stroke-width="4.95972"/><path opacity="0.3" d="M278.628 140.386C274.175 139.965 270.49 137.257 268.625 133.533M267.363 126.77C268.013 119.899 274.109 114.856 280.979 115.505C282.795 115.677 284.484 116.229 285.973 117.076M292.244 129.122C292.478 126.643 291.972 124.266 290.906 122.208M288.897 136.517C287.187 138.33 284.947 139.62 282.455 140.161" stroke="#3C5D87" stroke-width="1.7" stroke-linecap="round"/><path d="M220.051 126.119C222.831 123.436 224.746 121.588 227.114 118.508" stroke="white" stroke-width="1.14455" stroke-linecap="round"/><path d="M135.519 19.5908C135.457 28.0742 143.733 35.0129 154.005 35.0888C164.277 35.1647 172.656 28.3491 172.718 19.8657C172.781 11.3824 164.504 4.44371 154.232 4.3678C143.96 4.29189 135.582 11.1075 135.519 19.5908Z" fill="#3C5D87"/><path d="M168.055 26.132C171.537 33.3412 179.153 36.8704 185.066 34.0148C190.979 31.1591 192.949 23 189.468 15.7908C185.986 8.58161 178.37 5.05239 172.457 7.90805C166.544 10.7637 164.574 18.9229 168.055 26.132Z" fill="#3C5D87"/><path d="M129.304 34.8879C130.1 41.9892 138.58 46.8675 148.244 45.7838C157.907 44.7002 165.096 38.065 164.3 30.9637C163.503 23.8624 155.024 18.9842 145.36 20.0678C135.696 21.1515 128.508 27.7867 129.304 34.8879Z" fill="#3C5D87"/><path d="M178.61 17.3726L148.866 28.7172L155.807 46.9158L185.551 35.5712L178.61 17.3726Z" fill="#3C5D87"/><path d="M154.685 44.6089C150.543 46.1888 150.416 48.7992 151.935 52.7824L159.763 70.4492C161.548 75.1294 164.698 78.7584 169.565 76.902L190.608 69.5295C195.475 67.6732 197.974 62.3742 196.188 57.694L189.311 39.6635C187.792 35.6803 183.203 33.732 179.061 35.3119L154.685 44.6089Z" fill="#C29980"/><path d="M157.418 45.1591C153.934 46.4881 152.185 50.4158 153.529 53.9396L160.406 71.9701C162.015 76.1909 166.713 78.3071 170.889 76.7141L191.658 68.7928C195.835 67.1997 197.93 62.4929 196.32 58.2721L189.443 40.2416C188.099 36.7178 184.178 34.9527 180.694 36.2817L157.418 45.1591Z" stroke="#3C5D87" stroke-width="1.80233"/><path d="M150.844 65.5751C151.794 68.0647 154.754 69.2474 157.456 68.2168C160.158 67.1862 161.579 64.3324 160.629 61.8428C159.68 59.3532 156.72 58.1705 154.017 59.2011C151.315 60.2317 149.894 63.0855 150.844 65.5751Z" fill="#C29980"/><path d="M187.965 30.5947C188.612 30.3557 189.312 30.7888 189.386 31.4747L190.486 41.5856C190.565 42.3168 189.894 42.9048 189.179 42.7299L178.524 40.1216C178.206 40.0439 177.871 40.117 177.614 40.3199L155.319 57.957C154.818 58.3536 154.082 58.2197 153.753 57.6719L147.305 46.9498C146.963 46.3801 147.223 45.6392 147.847 45.4089L187.965 30.5947Z" fill="#FFE999" stroke="#3C5D87" stroke-width="1.52607"/><path d="M175.911 32.076C170.762 26.5337 162.096 26.2143 156.554 31.3626L159.183 34.1931C164.331 39.7354 172.998 40.0548 178.54 34.9065L175.911 32.076Z" fill="#FFE999"/><path d="M178.729 24.8582C181.302 29.0444 179.995 34.524 175.809 37.0974L174.495 34.9595C171.921 30.7734 173.229 25.2937 177.415 22.7204L178.729 24.8582Z" fill="#FFE999"/><path d="M166.736 56.5323C166.878 59.0729 168.532 61.3558 170.507 60.9779C174.707 59.9555 176.221 57.4285 176.079 54.8879C175.938 52.3472 173.248 50.1828 171.07 50.3041C168.892 50.4254 166.595 53.9916 166.736 56.5323Z" fill="white"/><path d="M181.016 50.8689C181.378 53.3876 183.421 55.178 185.58 54.8678C187.739 54.5575 189.952 52.1557 189.59 49.637C189.228 47.1182 186.429 45.4364 184.27 45.7466C182.111 46.0569 180.654 48.3502 181.016 50.8689Z" fill="white"/><path d="M176.056 53.2942C175.254 51.5956 173.513 50.7338 172.166 51.3692C170.819 52.0045 170.361 53.914 172.637 55.4482C173.299 58.4615 174.438 58.3399 175.785 57.7045C177.132 57.0691 176.857 54.9927 176.056 53.2942Z" fill="#3C5D87"/><path d="M189.456 48.0592C188.573 46.3153 186.947 45.3624 185.825 45.9306C184.702 46.4988 184.011 48.281 186.045 49.7352C186.42 52.3625 187.899 52.8138 189.022 52.2456C190.144 51.6773 190.339 49.803 189.456 48.0592Z" fill="#3C5D87"/><path fill-rule="evenodd" clip-rule="evenodd" d="M182.087 54.8173C182.04 55.1476 182.269 55.4533 182.6 55.5001C182.885 55.5405 183.191 55.5727 183.475 55.6026C183.653 55.6213 183.821 55.639 183.97 55.6572C184.392 55.7088 184.739 55.7715 185.026 55.8776C185.303 55.98 185.505 56.1163 185.655 56.309C185.807 56.5044 185.942 56.8037 186.004 57.2896C186.066 57.7706 185.825 58.268 185.315 58.6724C184.806 59.0767 184.11 59.3145 183.474 59.2843C183.14 59.2684 182.857 59.5257 182.842 59.8588C182.826 60.192 183.083 60.475 183.416 60.4908C184.364 60.5359 185.344 60.1923 186.067 59.6183C186.789 59.0445 187.335 58.1668 187.202 57.1358C187.12 56.4944 186.926 55.9742 186.608 55.5663C186.288 55.1558 185.878 54.905 185.445 54.7447C185.021 54.588 184.559 54.5124 184.117 54.4582C183.92 54.4341 183.736 54.4151 183.555 54.3963C183.297 54.3695 183.045 54.3433 182.769 54.3042C182.439 54.2573 182.133 54.4871 182.087 54.8173Z" fill="#3C5D87"/><path d="M156.207 58.4735C153.515 58.8771 149.379 60.5217 151.166 65.8356C152.365 68.7003 155.297 70.2195 158.86 67.7187" stroke="#3C5D87" stroke-width="1.80233" stroke-linecap="round"/><path d="M176.136 54.8648C175.685 48.9365 166.282 47.1817 166.934 56.8349" stroke="#3C5D87" stroke-width="1.52607" stroke-linecap="round"/><path d="M189.713 49.5621C188.749 43.6956 179.228 42.7652 180.718 52.3251" stroke="#3C5D87" stroke-width="1.52607" stroke-linecap="round"/><mask id="path-83-outside-1_100_2692" maskUnits="userSpaceOnUse" x="168.824" y="59.3462" width="18.8133" height="12.3887" fill="black"><rect fill="white" x="168.824" y="59.3462" width="18.8133" height="12.3887"/><path d="M171.338 64.5295C171.81 62.4929 174.214 61.9446 176.203 62.5873L176.301 62.619C178.416 63.3021 180.656 63.5072 182.859 63.2194L-nan -nanL182.859 63.2194C184.468 63.0093 185.774 64.4859 184.951 65.8836C184.777 66.179 184.583 66.4653 184.368 66.7266C182.847 68.5775 179.41 69.4616 178.381 69.6912C178.184 69.7353 177.987 69.7698 177.785 69.7881C176.833 69.875 173.836 69.9648 172.114 67.9215C171.176 66.808 171.091 65.5958 171.338 64.5295Z"/></mask><path d="M171.338 64.5295C171.81 62.4929 174.214 61.9446 176.203 62.5873L176.301 62.619C178.416 63.3021 180.656 63.5072 182.859 63.2194L-nan -nanL182.859 63.2194C184.468 63.0093 185.774 64.4859 184.951 65.8836C184.777 66.179 184.583 66.4653 184.368 66.7266C182.847 68.5775 179.41 69.4616 178.381 69.6912C178.184 69.7353 177.987 69.7698 177.785 69.7881C176.833 69.875 173.836 69.9648 172.114 67.9215C171.176 66.808 171.091 65.5958 171.338 64.5295Z" fill="#3C5D87"/><path d="M184.368 66.7266L183.484 65.9997L184.368 66.7266ZM172.114 67.9215L172.99 67.184L172.114 67.9215ZM176.301 62.619L176.653 61.5298L176.653 61.5298L176.301 62.619ZM184.951 65.8836L185.937 66.4642L184.951 65.8836ZM178.381 69.6912L178.631 70.8083L178.381 69.6912ZM177.785 69.7881L177.681 68.6483L177.785 69.7881ZM171.338 64.5295L172.453 64.7878L171.338 64.5295ZM176.203 62.5873L175.851 63.6764L175.851 63.6764L176.203 62.5873ZM183.964 65.303C183.815 65.5578 183.654 65.7932 183.484 65.9997L185.252 67.4534C185.512 67.1374 185.739 66.8001 185.937 66.4642L183.964 65.303ZM172.99 67.184C172.337 66.4097 172.267 65.5926 172.453 64.7878L170.223 64.2712C169.916 65.599 170.015 67.2063 171.239 68.659L172.99 67.184ZM175.851 63.6764L175.95 63.7081L176.653 61.5298L176.555 61.4981L175.851 63.6764ZM183.484 65.9997C182.907 66.7014 181.884 67.2971 180.757 67.7573C179.662 68.2048 178.614 68.4666 178.132 68.5741L178.631 70.8083C179.178 70.6861 180.363 70.3911 181.623 69.8765C182.852 69.3745 184.308 68.6027 185.252 67.4534L183.484 65.9997ZM177.681 68.6483C177.266 68.6862 176.401 68.7237 175.468 68.5324C174.534 68.3409 173.628 67.9411 172.99 67.184L171.239 68.659C172.323 69.9453 173.776 70.5223 175.009 70.7749C176.243 71.0279 177.352 70.9769 177.889 70.928L177.681 68.6483ZM175.95 63.7081C178.225 64.4434 180.636 64.6641 183.008 64.3543L182.711 62.0844C180.676 62.3503 178.607 62.1609 176.653 61.5298L175.95 63.7081ZM185.937 66.4642C186.609 65.3227 186.409 64.0847 185.702 63.2226C185.02 62.392 183.897 61.9295 182.711 62.0844L183.008 64.3543C183.43 64.2991 183.764 64.4699 183.932 64.6745C184.013 64.7737 184.05 64.8719 184.058 64.9576C184.066 65.037 184.054 65.1512 183.964 65.303L185.937 66.4642ZM178.132 68.5741C177.968 68.6107 177.821 68.6356 177.681 68.6483L177.889 70.928C178.152 70.904 178.399 70.8598 178.631 70.8083L178.132 68.5741ZM172.453 64.7878C172.583 64.2255 172.963 63.8454 173.573 63.6364C174.214 63.4167 175.056 63.4194 175.851 63.6764L176.555 61.4981C175.361 61.1124 174.007 61.068 172.831 61.4709C171.623 61.8846 170.565 62.7969 170.223 64.2712L172.453 64.7878Z" fill="#3C5D87" mask="url(#path-83-outside-1_100_2692)"/><path d="M170.973 65.75L170.986 65.3236C170.997 64.9837 171.045 64.6539 171.117 64.3401L170.973 65.75ZM170.973 65.75L171.378 65.8845M170.973 65.75L171.378 65.8845M171.378 65.8845C171.733 66.0026 172.111 66.0708 172.504 66.0809L171.378 65.8845ZM176.814 62.0141L176.814 62.0141C178.094 62.4277 179.422 62.6591 180.759 62.7048L181.513 62.7306L181.285 63.4495C180.728 65.2079 179.062 66.4624 177.125 66.4125L177.125 66.4125C176.18 66.3882 175.315 66.0567 174.623 65.5169C174.007 65.8923 173.278 66.1008 172.504 66.0809L176.814 62.0141ZM176.814 62.0141L176.716 61.9824C176.716 61.9824 176.716 61.9824 176.716 61.9824M176.814 62.0141L176.716 61.9824M176.716 61.9824C175.622 61.6289 174.395 61.5949 173.353 61.952M176.716 61.9824L173.353 61.952M173.353 61.952C172.295 62.3145 171.406 63.0938 171.117 64.34L173.353 61.952Z" fill="white" stroke="#3C5D87" stroke-width="1.14455"/><path d="M147.491 44.3788L152.419 52.3809" stroke="white" stroke-width="1.52607" stroke-linecap="round"/><path fill-rule="evenodd" clip-rule="evenodd" d="M151.664 44.7852L146.771 46.6957L144.551 43.3441L150.498 43.0441L151.664 44.7852Z" fill="#3C5D87"/><path d="M265.763 104.194C277.428 95.4613 304.51 99.6961 308.522 125.507" stroke="white" stroke-width="1.52607" stroke-linecap="round"/><circle cx="152.806" cy="163.947" r="27.4646" transform="rotate(-8.17661 152.806 163.947)" fill="#3C5D87" stroke="#3C5D87" stroke-width="6.48579"/><circle cx="152.804" cy="163.947" r="20.0796" transform="rotate(-8.17661 152.804 163.947)" fill="white" stroke="#3C5D87" stroke-width="4.95972"/><path opacity="0.3" d="M165.173 162.169C165.809 166.596 164.042 170.814 160.86 173.501M154.581 176.315C147.75 177.297 141.417 172.555 140.435 165.724C140.176 163.918 140.316 162.148 140.789 160.501M151.027 151.578C148.563 151.932 146.37 152.982 144.62 154.501M159.001 153.095C161.165 154.332 162.945 156.206 164.055 158.501" stroke="#3C5D87" stroke-width="1.7" stroke-linecap="round"/><path d="M138.494 139.879C150.159 131.147 177.241 135.382 181.253 161.193" stroke="white" stroke-width="1.52607" stroke-linecap="round"/><path d="M249.12 89.8965L252.857 96.3071" stroke="#FFD9AB" stroke-width="5.72276" stroke-linecap="square"/><defs><clipPath id="clip0_100_2692"><rect x="0.333374" y="40.001" width="405.33" height="128" rx="12" fill="white"/></clipPath></defs></svg>