<svg width="577" height="748" viewBox="0 0 577 748" fill="none" xmlns="http://www.w3.org/2000/svg"><rect x="285" y="276.181" width="260" height="260" rx="48" transform="rotate(-6 285 276.181)" fill="#FFFAED"/><rect x="136.402" y="0.00292969" width="260" height="260" rx="48" transform="rotate(14.1143 136.402 0.00292969)" fill="#FFFAED"/><rect opacity="0.2" x="199.982" y="340.253" width="30.8694" height="30.8694" rx="8.82662" transform="rotate(-6.07706 199.982 340.253)" fill="#FFD9AB"/><rect opacity="0.2" x="416.498" y="96.376" width="26.8694" height="26.8694" rx="8.82662" transform="rotate(-24.6502 416.498 96.376)" fill="#FFD9AB"/><rect opacity="0.2" x="390.563" y="41.333" width="15.4991" height="15.4991" rx="5.09147" transform="rotate(-57.1785 390.563 41.333)" fill="#FFD9AB"/><rect opacity="0.2" width="15.4991" height="15.4991" rx="5.09147" transform="matrix(-0.542023 -0.840364 -0.840364 0.542023 423.426 623.027)" fill="#FFD9AB"/><rect x="114.988" y="456.595" width="260" height="260" rx="48" transform="rotate(7.15765 114.988 456.595)" fill="#FFFAED"/><path opacity="0.4" d="M31 59.0029C47.9877 89.5807 69.2157 112.385 98 129.244M330 684.003C376 697.003 453 692.003 477 635.003M369 175.893C421.841 180.914 469.35 191.353 499 221.003C518.552 240.555 525.279 265.637 521.078 291.003M274 415.547C189.545 421.819 109.273 428.047 82 471.003C75.1996 481.714 71.9543 493.147 72.5541 505.003" stroke="#FF9600" stroke-width="2" stroke-linecap="round" stroke-linejoin="round" stroke-dasharray="9 9"/><rect x="302" y="312.003" width="260" height="160" rx="14" fill="white"/><path d="M294 338.003H570" stroke="#FFD9AB" stroke-width="2" stroke-linecap="round" stroke-linejoin="round"/><path d="M294 374.003H570" stroke="#FFD9AB" stroke-width="2" stroke-linecap="round" stroke-linejoin="round"/><path d="M294 410.003H570" stroke="#FFD9AB" stroke-width="2" stroke-linecap="round" stroke-linejoin="round"/><path d="M294 446.003H570" stroke="#FFD9AB" stroke-width="2" stroke-linecap="round" stroke-linejoin="round"/><rect x="302" y="312.003" width="260" height="160" rx="14" stroke="#3C5D87" stroke-width="2"/><rect opacity="0.12" x="334" y="466.003" width="218" height="12" rx="4" fill="#3C5D87"/><path d="M576 338.003H532L492 374.003L452 410.003L412 374.003L372 410.003L332.5 446.003H278" stroke="#3C5D87" stroke-width="2" stroke-linecap="round" stroke-linejoin="round"/><rect x="359" y="325.003" width="26" height="26" rx="7" fill="white" stroke="#FFD9AB" stroke-width="2"/><rect x="319" y="325.003" width="26" height="26" rx="7" fill="white" stroke="#FFD9AB" stroke-width="2"/><rect x="399" y="325.003" width="26" height="26" rx="7" fill="white" stroke="#FFD9AB" stroke-width="2"/><rect x="439" y="325.003" width="26" height="26" rx="7" fill="white" stroke="#FFD9AB" stroke-width="2"/><rect x="479" y="325.003" width="26" height="26" rx="7" fill="white" stroke="#FFD9AB" stroke-width="2"/><rect x="519" y="325.003" width="26" height="26" rx="7" fill="white" stroke="#FFD9AB" stroke-width="2"/><rect x="359" y="361.003" width="26" height="26" rx="7" fill="white" stroke="#FFD9AB" stroke-width="2"/><rect x="319" y="361.003" width="26" height="26" rx="7" fill="white" stroke="#FFD9AB" stroke-width="2"/><rect x="399" y="361.003" width="26" height="26" rx="7" fill="white" stroke="#FFD9AB" stroke-width="2"/><rect x="439" y="361.003" width="26" height="26" rx="7" fill="white" stroke="#FFD9AB" stroke-width="2"/><rect x="479" y="361.003" width="26" height="26" rx="7" fill="white" stroke="#FFD9AB" stroke-width="2"/><rect x="519" y="361.003" width="26" height="26" rx="7" fill="white" stroke="#FFD9AB" stroke-width="2"/><rect x="359" y="397.003" width="26" height="26" rx="7" fill="white" stroke="#FFD9AB" stroke-width="2"/><rect x="319" y="397.003" width="26" height="26" rx="7" fill="white" stroke="#FFD9AB" stroke-width="2"/><rect x="399" y="397.003" width="26" height="26" rx="7" fill="white" stroke="#FFD9AB" stroke-width="2"/><rect x="439" y="397.003" width="26" height="26" rx="7" fill="white" stroke="#FFD9AB" stroke-width="2"/><rect x="479" y="397.003" width="26" height="26" rx="7" fill="white" stroke="#FFD9AB" stroke-width="2"/><rect x="519" y="397.003" width="26" height="26" rx="7" fill="white" stroke="#FFD9AB" stroke-width="2"/><rect x="359" y="433.003" width="26" height="26" rx="7" fill="white" stroke="#FFD9AB" stroke-width="2"/><rect x="319" y="433.003" width="26" height="26" rx="7" fill="white" stroke="#FFD9AB" stroke-width="2"/><rect x="399" y="433.003" width="26" height="26" rx="7" fill="white" stroke="#FFD9AB" stroke-width="2"/><rect x="439" y="433.003" width="26" height="26" rx="7" fill="white" stroke="#FFD9AB" stroke-width="2"/><rect x="479" y="433.003" width="26" height="26" rx="7" fill="white" stroke="#FFD9AB" stroke-width="2"/><rect x="519" y="433.003" width="26" height="26" rx="7" fill="white" stroke="#FFD9AB" stroke-width="2"/><rect x="399" y="361.003" width="26" height="26" rx="7" fill="#FFD9AB" stroke="#3C5D87" stroke-width="2"/><path fill-rule="evenodd" clip-rule="evenodd" d="M415.617 369.006C416.064 368.529 416.817 368.517 417.279 368.979C417.74 369.441 417.728 370.193 417.252 370.64L413.306 374.255L417.251 377.869C417.728 378.315 417.74 379.068 417.278 379.53C416.816 379.992 416.064 379.98 415.617 379.503L412.001 375.555L408.332 379.5C407.902 379.963 407.174 379.976 406.727 379.529C406.281 379.083 406.294 378.356 406.756 377.926L410.705 374.255L406.757 370.584C406.294 370.153 406.281 369.425 406.728 368.978C407.174 368.532 407.901 368.545 408.331 369.007L412.001 372.954L415.617 369.006Z" fill="#3C5D87"/><rect x="358" y="396.003" width="28" height="28" rx="8" fill="#3C5D87"/><path fill-rule="evenodd" clip-rule="evenodd" d="M378.786 404.582C378.245 404.077 377.394 404.121 376.907 404.678L369.85 412.753L367.429 410.15C366.931 409.613 366.081 409.613 365.582 410.149C365.084 410.683 365.141 411.526 365.707 411.988L368.986 414.661C369.513 415.09 370.28 415.05 370.759 414.568L378.821 406.463C379.343 405.939 379.327 405.086 378.786 404.582Z" fill="#FFE999"/><rect x="318" y="432.003" width="28" height="28" rx="8" fill="#3C5D87"/><path fill-rule="evenodd" clip-rule="evenodd" d="M338.786 440.582C338.245 440.077 337.394 440.121 336.907 440.678L329.85 448.753L327.429 446.15C326.931 445.613 326.081 445.613 325.582 446.149C325.084 446.683 325.141 447.526 325.707 447.988L328.986 450.661C329.513 451.09 330.28 451.05 330.759 450.568L338.821 442.463C339.343 441.939 339.327 441.086 338.786 440.582Z" fill="#FFE999"/><rect x="438" y="396.003" width="28" height="28" rx="8" fill="#3C5D87"/><path fill-rule="evenodd" clip-rule="evenodd" d="M458.786 404.582C458.245 404.077 457.394 404.121 456.907 404.678L449.85 412.753L447.429 410.15C446.931 409.613 446.081 409.613 445.582 410.149C445.084 410.683 445.141 411.526 445.707 411.988L448.986 414.661C449.513 415.09 450.28 415.05 450.759 414.568L458.821 406.463C459.343 405.939 459.327 405.086 458.786 404.582Z" fill="#FFE999"/><rect x="478" y="360.003" width="28" height="28" rx="8" fill="#3C5D87"/><path fill-rule="evenodd" clip-rule="evenodd" d="M498.786 368.582C498.245 368.077 497.394 368.121 496.907 368.678L489.85 376.753L487.429 374.15C486.931 373.613 486.081 373.613 485.582 374.149C485.084 374.683 485.141 375.526 485.707 375.988L488.986 378.661C489.513 379.09 490.28 379.05 490.759 378.568L498.821 370.463C499.343 369.939 499.327 369.086 498.786 368.582Z" fill="#FFE999"/><rect x="518" y="324.003" width="28" height="28" rx="8" fill="#3C5D87"/><path fill-rule="evenodd" clip-rule="evenodd" d="M538.786 332.582C538.245 332.077 537.394 332.121 536.907 332.678L529.85 340.753L527.429 338.15C526.931 337.613 526.081 337.613 525.582 338.149C525.084 338.683 525.141 339.526 525.707 339.988L528.986 342.661C529.513 343.09 530.28 343.05 530.759 342.568L538.821 334.463C539.343 333.939 539.327 333.086 538.786 332.582Z" fill="#FFE999"/><path d="M114 658.003C114 650.46 114 646.689 116.343 644.346C118.686 642.003 122.458 642.003 130 642.003H178C185.542 642.003 189.314 642.003 191.657 644.346C194 646.689 194 650.46 194 658.003V674.003C194 681.545 194 685.317 191.657 687.66C189.314 690.003 185.542 690.003 178 690.003H130C122.458 690.003 118.686 690.003 116.343 687.66C114 685.317 114 681.545 114 674.003V658.003Z" fill="white" stroke="#3C5D87" stroke-width="2"/><rect opacity="0.15" x="125" y="686.003" width="58" height="8" rx="3" fill="#3C5D87"/><path d="M115 646.003L144.893 666.698C149.298 669.748 151.501 671.273 154 671.273C156.499 671.273 158.702 669.748 163.107 666.698L193 646.003" stroke="#3C5D87" stroke-width="2"/><path d="M115 687.003L144.611 666.503M193 687.003L163.389 666.503" stroke="#3C5D87" stroke-width="2"/><path d="M210 560.003C210 554.346 210 551.518 211.757 549.76C213.515 548.003 216.343 548.003 222 548.003H358C363.657 548.003 366.485 548.003 368.243 549.76C370 551.518 370 554.346 370 560.003V648.003C370 653.66 370 656.488 368.243 658.246C366.485 660.003 363.657 660.003 358 660.003H222C216.343 660.003 213.515 660.003 211.757 658.246C210 656.488 210 653.66 210 648.003V560.003Z" fill="white" stroke="#3C5D87" stroke-width="2"/><path d="M234 563.003H340" stroke="#FFD9AB" stroke-width="2" stroke-linecap="round" stroke-linejoin="round"/><path d="M234 569.003H342" stroke="#FFD9AB" stroke-width="2" stroke-linecap="round" stroke-linejoin="round"/><path d="M234 575.003H338" stroke="#FFD9AB" stroke-width="2" stroke-linecap="round" stroke-linejoin="round"/><path d="M234 581.003H346" stroke="#FFD9AB" stroke-width="2" stroke-linecap="round" stroke-linejoin="round"/><path d="M234 587.003H334" stroke="#FFD9AB" stroke-width="2" stroke-linecap="round" stroke-linejoin="round"/><path d="M234 593.003H342" stroke="#FFD9AB" stroke-width="2" stroke-linecap="round" stroke-linejoin="round"/><path d="M234 599.003H338" stroke="#FFD9AB" stroke-width="2" stroke-linecap="round" stroke-linejoin="round"/><path d="M234 605.003H330" stroke="#FFD9AB" stroke-width="2" stroke-linecap="round" stroke-linejoin="round"/><path d="M234 611.003H294" stroke="#FFD9AB" stroke-width="2" stroke-linecap="round" stroke-linejoin="round"/><path d="M234 621.003H340" stroke="#FFD9AB" stroke-width="2" stroke-linecap="round" stroke-linejoin="round"/><path d="M234 627.003H342" stroke="#FFD9AB" stroke-width="2" stroke-linecap="round" stroke-linejoin="round"/><path d="M234 633.003H338" stroke="#FFD9AB" stroke-width="2" stroke-linecap="round" stroke-linejoin="round"/><path d="M234 639.003H346" stroke="#FFD9AB" stroke-width="2" stroke-linecap="round" stroke-linejoin="round"/><path d="M234 645.003H334" stroke="#FFD9AB" stroke-width="2" stroke-linecap="round" stroke-linejoin="round"/><path d="M234 651.003H342" stroke="#FFD9AB" stroke-width="2" stroke-linecap="round" stroke-linejoin="round"/><path d="M234 657.003H338" stroke="#FFD9AB" stroke-width="2" stroke-linecap="round" stroke-linejoin="round"/><path d="M360 559.003H376V580.583C376 582.113 374.353 583.076 373.019 582.326L368.981 580.054C368.372 579.712 367.628 579.712 367.019 580.054L362.981 582.326C361.647 583.076 360 582.113 360 580.583V559.003Z" fill="#FFD9AB" stroke="#3C5D87" stroke-width="2"/><path fill-rule="evenodd" clip-rule="evenodd" d="M363.308 567.341C362.4 566.486 361.946 566.059 361.438 565.849C360.93 565.638 360.307 565.619 359.061 565.582C356.472 565.504 354.928 565.215 353.859 564.146C352.79 563.077 352.501 561.533 352.423 558.944C352.386 557.698 352.367 557.075 352.157 556.567C351.946 556.059 351.519 555.605 350.664 554.697C348.888 552.811 348.001 551.515 348.001 550.003C348.001 548.492 348.888 547.196 350.664 545.31C351.519 544.402 351.946 543.948 352.157 543.44C352.367 542.932 352.386 542.309 352.423 541.062C352.501 538.474 352.79 536.93 353.859 535.861C354.928 534.793 356.472 534.504 359.06 534.426C360.306 534.388 360.93 534.369 361.438 534.159C361.946 533.949 362.4 533.521 363.307 532.666C365.193 530.891 366.49 530.003 368.001 530.003C369.513 530.003 370.809 530.891 372.695 532.666C373.603 533.521 374.057 533.949 374.565 534.159C375.073 534.369 375.696 534.388 376.942 534.426C379.531 534.504 381.075 534.793 382.144 535.861C383.213 536.93 383.501 538.474 383.579 541.063C383.617 542.309 383.636 542.932 383.846 543.44C384.057 543.948 384.484 544.402 385.339 545.31C387.114 547.196 388.002 548.492 388.002 550.003C388.002 551.515 387.114 552.811 385.339 554.696C384.484 555.604 384.057 556.058 383.846 556.566C383.636 557.074 383.617 557.697 383.579 558.944C383.501 561.533 383.213 563.077 382.144 564.146C381.075 565.215 379.531 565.504 376.941 565.582C375.695 565.619 375.072 565.638 374.564 565.849C374.056 566.059 373.602 566.486 372.694 567.341C370.808 569.116 369.512 570.004 368.001 570.004C366.49 570.004 365.194 569.116 363.308 567.341Z" fill="#FFE999"/><path d="M372.694 567.341L372.008 566.613L372.694 567.341ZM374.564 565.849L374.181 564.925L374.564 565.849ZM383.579 558.944L384.579 558.974L383.579 558.944ZM383.846 556.566L384.77 556.949L383.846 556.566ZM383.579 541.063L384.579 541.033L383.579 541.063ZM383.846 543.44L382.922 543.823L383.846 543.44ZM374.565 534.159L374.947 533.235L374.565 534.159ZM363.307 532.666L362.622 531.938L363.307 532.666ZM361.438 534.159L361.055 533.235L361.438 534.159ZM352.157 543.44L353.08 543.823L352.157 543.44ZM350.664 554.697L351.392 554.011L350.664 554.697ZM352.157 556.567L353.08 556.184L352.157 556.567ZM359.061 565.582L359.031 566.581L359.061 565.582ZM363.308 567.341L362.623 568.069L363.308 567.341ZM361.438 565.849L361.821 564.925L361.438 565.849ZM359.091 564.582C356.487 564.504 355.327 564.2 354.566 563.439L353.152 564.853C354.528 566.23 356.457 566.504 359.031 566.581L359.091 564.582ZM354.566 563.439C353.805 562.678 353.501 561.518 353.423 558.914L351.424 558.974C351.501 561.548 351.775 563.477 353.152 564.853L354.566 563.439ZM351.392 554.011C349.606 552.115 349.001 551.08 349.001 550.003H347.001C347.001 551.95 348.171 553.507 349.936 555.382L351.392 554.011ZM349.001 550.003C349.001 548.927 349.606 547.892 351.392 545.995L349.936 544.624C348.171 546.499 347.001 548.057 347.001 550.003H349.001ZM353.423 541.092C353.501 538.489 353.805 537.33 354.566 536.568L353.152 535.154C351.776 536.53 351.501 538.459 351.424 541.032L353.423 541.092ZM354.566 536.568C355.327 535.807 356.487 535.504 359.09 535.425L359.03 533.426C356.456 533.504 354.528 533.778 353.152 535.154L354.566 536.568ZM363.993 533.394C365.89 531.609 366.925 531.003 368.001 531.003V529.003C366.054 529.003 364.497 530.173 362.622 531.938L363.993 533.394ZM368.001 531.003C369.078 531.003 370.112 531.609 372.009 533.394L373.38 531.938C371.505 530.173 369.948 529.003 368.001 529.003V531.003ZM376.912 535.425C379.516 535.504 380.676 535.807 381.437 536.568L382.851 535.154C381.475 533.778 379.546 533.504 376.972 533.426L376.912 535.425ZM381.437 536.568C382.198 537.33 382.501 538.489 382.58 541.093L384.579 541.033C384.501 538.459 384.227 536.531 382.851 535.154L381.437 536.568ZM384.611 545.996C386.396 547.892 387.002 548.927 387.002 550.003H389.002C389.002 548.057 387.832 546.5 386.067 544.625L384.611 545.996ZM387.002 550.003C387.002 551.08 386.396 552.114 384.611 554.011L386.067 555.382C387.832 553.507 389.002 551.95 389.002 550.003H387.002ZM382.58 558.914C382.501 561.518 382.198 562.678 381.437 563.439L382.851 564.853C384.227 563.477 384.501 561.548 384.579 558.974L382.58 558.914ZM381.437 563.439C380.675 564.2 379.516 564.504 376.911 564.582L376.972 566.581C379.546 566.504 381.474 566.23 382.851 564.853L381.437 563.439ZM372.008 566.613C370.112 568.398 369.077 569.004 368.001 569.004V571.004C369.947 571.004 371.505 569.834 373.379 568.069L372.008 566.613ZM368.001 569.004C366.925 569.004 365.89 568.398 363.994 566.613L362.623 568.069C364.497 569.834 366.055 571.004 368.001 571.004V569.004ZM376.911 564.582C375.752 564.617 374.9 564.627 374.181 564.925L374.947 566.772C375.243 566.649 375.639 566.621 376.972 566.581L376.911 564.582ZM373.379 568.069C374.35 567.155 374.65 566.895 374.947 566.772L374.181 564.925C373.462 565.223 372.853 565.818 372.008 566.613L373.379 568.069ZM384.611 554.011C383.815 554.856 383.22 555.464 382.922 556.184L384.77 556.949C384.893 556.652 385.153 556.353 386.067 555.382L384.611 554.011ZM384.579 558.974C384.619 557.641 384.647 557.246 384.77 556.949L382.922 556.184C382.624 556.903 382.615 557.754 382.58 558.914L384.579 558.974ZM382.58 541.093C382.615 542.253 382.624 543.104 382.922 543.823L384.77 543.058C384.647 542.761 384.619 542.366 384.579 541.033L382.58 541.093ZM386.067 544.625C385.153 543.654 384.893 543.355 384.77 543.058L382.922 543.823C383.22 544.542 383.815 545.151 384.611 545.996L386.067 544.625ZM372.009 533.394C372.854 534.19 373.463 534.785 374.182 535.083L374.947 533.235C374.651 533.112 374.351 532.852 373.38 531.938L372.009 533.394ZM376.972 533.426C375.639 533.386 375.244 533.358 374.947 533.235L374.182 535.083C374.901 535.381 375.752 535.39 376.912 535.425L376.972 533.426ZM359.09 535.425C360.25 535.39 361.101 535.381 361.82 535.083L361.055 533.235C360.758 533.358 360.363 533.386 359.03 533.426L359.09 535.425ZM362.622 531.938C361.651 532.852 361.352 533.112 361.055 533.235L361.82 535.083C362.54 534.785 363.148 534.19 363.993 533.394L362.622 531.938ZM351.392 545.995C352.188 545.15 352.783 544.542 353.08 543.823L351.233 543.057C351.11 543.354 350.85 543.653 349.936 544.624L351.392 545.995ZM351.424 541.032C351.384 542.365 351.356 542.76 351.233 543.057L353.08 543.823C353.378 543.103 353.388 542.252 353.423 541.092L351.424 541.032ZM353.423 558.914C353.388 557.754 353.378 556.903 353.08 556.184L351.233 556.949C351.356 557.246 351.384 557.642 351.424 558.974L353.423 558.914ZM349.936 555.382C350.85 556.353 351.11 556.653 351.233 556.949L353.08 556.184C352.783 555.465 352.188 554.856 351.392 554.011L349.936 555.382ZM359.031 566.581C360.364 566.621 360.759 566.649 361.056 566.772L361.821 564.925C361.102 564.627 360.251 564.617 359.091 564.582L359.031 566.581ZM363.994 566.613C363.149 565.818 362.54 565.223 361.821 564.925L361.056 566.772C361.353 566.895 361.652 567.155 362.623 568.069L363.994 566.613Z" fill="#3C5D87"/><path d="M90 526.003C90 520.346 90 517.518 91.7574 515.76C93.5147 514.003 96.3431 514.003 102 514.003H238C243.657 514.003 246.485 514.003 248.243 515.76C250 517.518 250 520.346 250 526.003V614.003C250 619.66 250 622.488 248.243 624.246C246.485 626.003 243.657 626.003 238 626.003H102C96.3431 626.003 93.5147 626.003 91.7574 624.246C90 622.488 90 619.66 90 614.003V526.003Z" fill="white" stroke="#3C5D87" stroke-width="2"/><path opacity="0.15" fill-rule="evenodd" clip-rule="evenodd" d="M254 609.003C254 608.073 254 607.608 253.898 607.226C253.62 606.191 252.812 605.383 251.776 605.105C251.395 605.003 250.93 605.003 250 605.003C249.07 605.003 248.605 605.003 248.224 605.105C247.188 605.383 246.38 606.191 246.102 607.226C246 607.608 246 608.073 246 609.003V617.003C246 619.831 246 621.246 245.121 622.124C244.243 623.003 242.828 623.003 240 623.003H174C173.07 623.003 172.605 623.003 172.224 623.105C171.188 623.383 170.38 624.191 170.102 625.226C170 625.608 170 626.073 170 627.003C170 627.933 170 628.398 170.102 628.779C170.38 629.815 171.188 630.623 172.224 630.901C172.605 631.003 173.07 631.003 174 631.003H238C245.542 631.003 249.314 631.003 251.657 628.66C254 626.317 254 622.545 254 615.003V609.003Z" fill="#3C5D87"/><path d="M102 529.003H126" stroke="#FFD9AB" stroke-width="2" stroke-linecap="round" stroke-linejoin="round"/><path d="M102 535.003H129" stroke="#FFD9AB" stroke-width="2" stroke-linecap="round" stroke-linejoin="round"/><path d="M102 541.003H123" stroke="#FFD9AB" stroke-width="2" stroke-linecap="round" stroke-linejoin="round"/><path d="M102 547.003H130" stroke="#FFD9AB" stroke-width="2" stroke-linecap="round" stroke-linejoin="round"/><path d="M102 553.003H127" stroke="#FFD9AB" stroke-width="2" stroke-linecap="round" stroke-linejoin="round"/><path d="M102 559.003H124" stroke="#FFD9AB" stroke-width="2" stroke-linecap="round" stroke-linejoin="round"/><path d="M102 565.003H128" stroke="#FFD9AB" stroke-width="2" stroke-linecap="round" stroke-linejoin="round"/><path d="M102 571.003H126" stroke="#FFD9AB" stroke-width="2" stroke-linecap="round" stroke-linejoin="round"/><path d="M102 577.003H117" stroke="#FFD9AB" stroke-width="2" stroke-linecap="round" stroke-linejoin="round"/><path d="M142 528.803C142 527.257 143.254 526.003 144.8 526.003H235.2C236.746 526.003 238 527.257 238 528.803V597.203C238 598.749 236.746 600.003 235.2 600.003H144.8C143.254 600.003 142 598.749 142 597.203V528.803Z" fill="#FFE999" fill-opacity="0.3"/><path d="M211.285 600.168C206.334 595.678 198.974 592.83 190.762 592.83C182.551 592.83 175.191 595.678 170.24 600.168H211.285Z" fill="#3C5D87"/><path d="M211.285 600.168C206.334 595.678 198.974 592.83 190.762 592.83C182.551 592.83 175.191 595.678 170.24 600.168" stroke="#3C5D87" stroke-width="0.986067"/><path d="M190.675 577.628C186.41 577.628 182.928 580.72 182.928 584.526V592.772C182.928 596.578 186.41 599.67 190.675 599.67C194.941 599.67 198.423 596.578 198.423 592.772V584.526C198.51 580.8 195.028 577.628 190.675 577.628Z" fill="#FFD9AB" stroke="#3C5D87" stroke-width="1.71425"/><path d="M187.221 540.604C176.249 540.604 167.355 549.498 167.355 560.469V563.688C164.668 563.959 162.57 566.228 162.57 568.987C162.57 571.929 164.955 574.314 167.897 574.314H168.144C169.626 581.475 173.419 586.884 181.382 586.884H198.855C208.043 586.884 211.963 581.472 213.422 574.308C216.249 574.179 218.502 571.846 218.502 568.987C218.502 566.386 216.638 564.221 214.173 563.754V560.469C214.173 549.498 205.279 540.604 194.307 540.604H187.221Z" fill="#FFD9AB" stroke="#001836" stroke-width="0.986067" stroke-linejoin="round"/><path fill-rule="evenodd" clip-rule="evenodd" d="M188.365 568.877C188.554 569.23 188.42 569.669 188.067 569.857C187.762 570.019 187.429 570.182 187.121 570.332C186.929 570.426 186.746 570.515 186.585 570.596C186.13 570.828 185.765 571.041 185.485 571.278C185.215 571.507 185.042 571.744 184.952 572.022C184.86 572.305 184.831 572.698 184.96 573.272C185.088 573.84 185.564 574.302 186.304 574.549C187.044 574.796 187.927 574.779 188.633 574.484C189.002 574.329 189.427 574.503 189.581 574.873C189.736 575.242 189.561 575.667 189.192 575.821C188.142 576.261 186.895 576.275 185.845 575.924C184.795 575.573 183.819 574.807 183.546 573.59C183.376 572.832 183.382 572.166 183.573 571.575C183.766 570.981 184.125 570.53 184.548 570.172C184.961 569.821 185.451 569.547 185.928 569.304C186.14 569.196 186.34 569.099 186.536 569.004C186.816 568.868 187.089 568.735 187.385 568.578C187.738 568.389 188.177 568.523 188.365 568.877Z" fill="#3C5D87"/><path d="M187.221 540.604C176.249 540.604 167.355 549.498 167.355 560.469V563.688C164.668 563.959 162.57 566.228 162.57 568.987C162.57 571.929 164.955 574.314 167.897 574.314H168.144C169.626 581.475 173.419 586.884 181.382 586.884H198.855C208.043 586.884 211.963 581.472 213.422 574.308C216.249 574.179 218.502 571.846 218.502 568.987C218.502 566.386 216.638 564.221 214.173 563.754V560.469C214.173 549.498 205.279 540.604 194.307 540.604H187.221Z" stroke="#3C5D87" stroke-width="1.71425"/><path d="M203.986 564.037C203.986 567.214 201.41 567.958 198.233 567.958C195.056 567.958 192.48 567.214 192.48 564.037C192.48 560.86 195.056 558.284 198.233 558.284C201.41 558.284 203.986 560.86 203.986 564.037Z" fill="white"/><path d="M186.203 564.037C186.203 567.214 183.627 567.958 180.45 567.958C177.273 567.958 174.697 567.214 174.697 564.037C174.697 560.86 177.273 558.284 180.45 558.284C183.627 558.284 186.203 560.86 186.203 564.037Z" fill="white"/><path d="M199.963 562.756C200.771 564.729 199.721 566.338 198.168 566.382C196.615 566.427 195.961 563.99 196.009 562.222C196.057 560.356 196.993 558.824 198.546 558.78C200.099 558.736 200.572 560.54 199.963 562.756Z" fill="#3C5D87"/><path d="M182.44 562.756C183.248 564.729 182.197 566.338 180.644 566.382C179.091 566.427 178.437 563.99 178.485 562.222C178.533 560.356 179.47 558.824 181.023 558.78C182.576 558.736 183.048 560.54 182.44 562.756Z" fill="#3C5D87"/><path fill-rule="evenodd" clip-rule="evenodd" d="M214.17 563.853C212.146 563.011 210.492 561.564 209.26 560.276C207.615 558.557 206.097 556.451 204.772 554.355C202.114 550.151 199.861 545.39 198.577 542.256C198.407 541.842 198.297 541.419 198.241 540.995C207.327 542.822 214.17 550.847 214.17 560.471V563.853Z" fill="#3C5D87"/><path d="M187.54 579.627C187.488 579.416 187.602 579.192 187.804 579.093C190.079 577.977 194.498 576.069 197.247 574.804C197.494 574.69 197.783 574.795 197.886 575.035C201.458 583.431 189.068 585.768 187.54 579.627Z" fill="white" stroke="#3C5D87" stroke-width="1.5"/><path d="M192.579 565.924C191.638 556.584 203.936 555.427 203.859 565.352" stroke="#3C5D87" stroke-width="1.71425" stroke-linecap="round"/><path d="M174.954 565.924C174.013 556.584 186.311 555.427 186.234 565.352" stroke="#3C5D87" stroke-width="1.71425" stroke-linecap="round"/><path fill-rule="evenodd" clip-rule="evenodd" d="M159.018 545.576C159.201 548.221 161.089 550.245 163.5 550.733L161.898 551.788C154.363 558.978 164.169 568.916 171.43 563.451L199.343 543.387C203.243 540.817 202.79 535.817 200.389 533.095C191.999 523.581 157.972 530.44 159.018 545.576Z" fill="#3C5D87"/><path d="M190.961 555.337C192.639 554.193 197.278 552.408 202.404 554.422" stroke="#3C5D87" stroke-width="1.71425" stroke-linecap="round"/><path d="M142 528.803C142 527.257 143.254 526.003 144.8 526.003H235.2C236.746 526.003 238 527.257 238 528.803V597.203C238 598.749 236.746 600.003 235.2 600.003H144.8C143.254 600.003 142 598.749 142 597.203V528.803Z" stroke="#3C5D87" stroke-width="2"/><path d="M142 610.803C142 609.257 143.254 608.003 144.8 608.003H235.2C236.746 608.003 238 609.257 238 610.803V611.203C238 612.749 236.746 614.003 235.2 614.003H144.8C143.254 614.003 142 612.749 142 611.203V610.803Z" fill="#3C5D87" fill-opacity="0.2" stroke="#3C5D87" stroke-width="2"/><path d="M142 610.803C142 609.257 143.254 608.003 144.8 608.003H152.2C153.746 608.003 155 609.257 155 610.803V611.203C155 612.749 153.746 614.003 152.2 614.003H144.8C143.254 614.003 142 612.749 142 611.203V610.803Z" fill="#3C5D87" stroke="#3C5D87" stroke-width="2"/><path fill-rule="evenodd" clip-rule="evenodd" d="M374.359 544.822C373.853 544.35 373.057 544.391 372.602 544.912L366.004 552.461L363.741 550.028C363.275 549.526 362.481 549.526 362.014 550.026C361.548 550.526 361.602 551.315 362.131 551.746L365.136 554.196C365.663 554.625 366.43 554.585 366.909 554.103L374.392 546.581C374.88 546.09 374.865 545.293 374.359 544.822Z" fill="#3C5D87"/><circle cx="368" cy="550.003" r="13" stroke="white" stroke-width="2"/><rect x="361" y="194.003" width="41" height="55" rx="6" fill="#FFD9AB"/><path d="M400.621 201.047V242.843" stroke="white" stroke-width="2" stroke-linecap="round"/><rect x="361" y="194.003" width="41" height="55" rx="6" stroke="#3C5D87" stroke-width="2" stroke-linecap="round" stroke-linejoin="round"/><circle cx="381.5" cy="228.502" r="15.7692" fill="#3C5D87" stroke="#3C5D87" stroke-width="2"/><circle cx="381.499" cy="228.502" r="14.1923" fill="white"/><circle cx="381.5" cy="228.502" r="12.6154" fill="#3C5D87"/><circle cx="381.5" cy="228.502" r="3.15385" fill="#FFE999"/><circle cx="381.5" cy="203.271" r="5.51923" fill="#3C5D87"/><circle cx="381.499" cy="197.751" r="0.788462" fill="#FFD9AB"/><circle cx="375.98" cy="203.271" r="0.788462" fill="#FFD9AB"/><circle cx="387.019" cy="203.271" r="0.788462" fill="#FFD9AB"/><circle cx="381.499" cy="208.789" r="0.788462" fill="#FFD9AB"/><circle cx="381.499" cy="203.271" r="3.94231" fill="#3C5D87"/><circle cx="381.499" cy="203.271" r="1.57692" fill="#FFD9AB"/><ellipse cx="108.232" cy="191.534" rx="5.67237" ry="7.6404" transform="rotate(-10.3 108.232 191.534)" fill="#FFE999" stroke="#3C5D87" stroke-width="2" stroke-linecap="round" stroke-linejoin="round"/><path d="M101.746 215.961L113 226.746" stroke="#3C5D87" stroke-width="2" stroke-linecap="round"/><path d="M109.301 198.051L114.828 227.003" stroke="#3C5D87" stroke-width="2" stroke-linecap="round"/><path d="M121.615 210.364L115.816 227.003" stroke="#3C5D87" stroke-width="2" stroke-linecap="round"/><path d="M126.932 221.278L118 226.795" stroke="#3C5D87" stroke-width="2" stroke-linecap="round"/><circle cx="130.291" cy="219.599" r="4.19768" fill="white" stroke="#3C5D87" stroke-width="2" stroke-linecap="round" stroke-linejoin="round"/><circle cx="100.627" cy="214.562" r="4.19768" fill="white" stroke="#3C5D87" stroke-width="2" stroke-linecap="round" stroke-linejoin="round"/><circle cx="123.014" cy="207.845" r="4.19768" fill="white" stroke="#3C5D87" stroke-width="2" stroke-linecap="round" stroke-linejoin="round"/><ellipse cx="103.915" cy="198.59" rx="4.47753" ry="6.71629" transform="rotate(-44.9853 103.915 198.59)" fill="#FFE999" stroke="#3C5D87" stroke-width="2" stroke-linecap="round" stroke-linejoin="round"/><ellipse cx="114.457" cy="196.727" rx="4.47753" ry="6.71629" transform="rotate(25.679 114.457 196.727)" fill="#FFE999" stroke="#3C5D87" stroke-width="2" stroke-linecap="round" stroke-linejoin="round"/><rect opacity="0.2" width="18" height="22" rx="4" transform="matrix(-1 0 0 1 124.488 227.003)" fill="#3C5D87"/><line x1="122.488" y1="231.003" x2="121.488" y2="244.003" stroke="white" stroke-width="2" stroke-linecap="round"/><rect width="18" height="22" rx="4" transform="matrix(-1 0 0 1 124.488 227.003)" stroke="#3C5D87" stroke-width="2" stroke-linecap="round" stroke-linejoin="round"/><path d="M51 226.003C51 213.853 60.8497 204.003 73 204.003C85.1503 204.003 95 213.853 95 226.003V246.456C95 247.863 93.8596 249.003 92.4528 249.003H53.5472C52.1404 249.003 51 247.863 51 246.456V226.003Z" fill="#FFE999"/><path d="M93 224.003C93 214.823 84.3301 206.003 74 206.003" stroke="white" stroke-width="2" stroke-linecap="round"/><path d="M51 226.003C51 213.853 60.8497 204.003 73 204.003V204.003C85.1503 204.003 95 213.853 95 226.003V245.67C95 247.511 93.5076 249.003 91.6667 249.003H54.3333C52.4924 249.003 51 247.511 51 245.67V226.003Z" stroke="#3C5D87" stroke-width="2" stroke-linecap="round" stroke-linejoin="round"/><circle cx="73" cy="226.003" r="16" fill="white"/><path opacity="0.3" d="M59.5254 227.003C59.5254 232.951 64.284 240.882 73.603 240.882" stroke="#FFD9AB" stroke-width="3" stroke-linecap="round"/><circle cx="73" cy="226.003" r="16" stroke="#3C5D87" stroke-width="2" stroke-linecap="round" stroke-linejoin="round"/><circle cx="73" cy="226.003" r="11" stroke="#FFD9AB" stroke-width="3" stroke-linecap="round" stroke-linejoin="round" stroke-dasharray="0.1 20"/><path d="M73.001 226.003L69.2422 236.313" stroke="#FFD9AB" stroke-width="2" stroke-linecap="round"/><circle cx="73" cy="226.003" r="2" fill="#3C5D87"/><path d="M64.7071 219.124C64.3166 218.734 64.3166 218.1 64.7071 217.71C65.0976 217.319 65.7308 217.319 66.1213 217.71L73.9001 225.489L72.4858 226.903L64.7071 219.124Z" fill="#3C5D87"/><path d="M78.1606 221.546C78.6242 221.246 79.2434 221.379 79.5435 221.842C79.8437 222.306 79.7113 222.925 79.2477 223.225L73.7457 226.788L72.6586 225.109L78.1606 221.546Z" fill="#3C5D87"/><path d="M216.7 127.464C216.871 126.059 218.064 125.003 219.479 125.003H244.521C245.936 125.003 247.129 126.059 247.3 127.464L261.617 244.864C261.821 246.532 260.519 248.003 258.838 248.003H205.162C203.481 248.003 202.179 246.532 202.383 244.864L216.7 127.464Z" fill="white" stroke="#3C5D87" stroke-width="2"/><path d="M38 249.003L426 249.003" stroke="#3C5D87" stroke-width="2" stroke-linecap="round"/><rect x="118" y="84.0029" width="228" height="132" rx="6" fill="white" stroke="#3C5D87" stroke-width="2"/><rect opacity="0.15" x="164" y="212.003" width="168" height="8" rx="3" fill="#3C5D87"/><rect x="128" y="94.0029" width="208" height="112" rx="2.8" fill="#FFD9AB"/><mask id="mask0_103_9466" style="mask-type:alpha" maskUnits="userSpaceOnUse" x="128" y="94" width="208" height="113"><rect x="128" y="94.0029" width="208" height="112" rx="2.8" fill="#FFD9AB"/></mask><g mask="url(#mask0_103_9466)"><path d="M143.808 58.2895C146.729 59.2054 150.002 60.0986 151.866 62.5165C153.79 65.0126 152.999 68.6546 154.078 71.6116C154.932 73.9517 156.393 75.9539 157.571 78.1503C159.051 80.9098 162.259 83.2367 161.983 86.3526C161.716 89.3779 158.29 91.099 156.229 93.338C154.434 95.287 152.418 96.9246 150.534 98.7879C148.468 100.832 147.106 103.705 144.479 104.959C141.836 106.221 138.72 106.098 135.802 105.821C132.908 105.547 130.025 104.819 127.519 103.352C125.073 101.919 123.544 99.4208 121.51 97.451C119.412 95.42 116.282 94.1696 115.23 91.4519C114.174 88.726 116.02 85.6982 115.83 82.783C115.631 79.735 113.565 76.8761 114.083 73.8656C114.603 70.8467 116.711 68.3306 118.72 66.0102C120.734 63.6834 123.169 61.7741 125.857 60.2655C128.58 58.7371 131.488 57.4423 134.595 57.1002C137.7 56.7585 140.829 57.3552 143.808 58.2895Z" fill="#3C5D87"/><path d="M247.147 125.025C249.424 125.269 250.723 127.817 252.63 129.092C254.216 130.153 256.074 130.72 257.521 131.965C258.993 133.232 260.02 134.882 261.176 136.445C262.493 138.227 264.393 139.736 264.871 141.904C265.348 144.066 264.387 146.266 263.816 148.404C263.238 150.574 262.942 152.966 261.47 154.655C260.001 156.342 257.636 156.835 255.628 157.808C253.747 158.72 251.898 159.604 249.914 160.257C247.751 160.969 245.523 162.48 243.334 161.855C241.098 161.217 239.927 158.744 238.408 156.973C237.139 155.495 236.29 153.752 235.074 152.23C233.811 150.651 232.046 149.527 231.048 147.766C229.96 145.848 228.93 143.733 229.004 141.525C229.077 139.311 229.944 137.025 231.459 135.417C232.976 133.806 235.654 133.97 237.399 132.612C239.005 131.363 239.561 129.115 241.167 127.865C242.926 126.497 244.937 124.788 247.147 125.025Z" fill="#3C5D87"/><path d="M154.225 171.853C155.86 171.834 157.526 170.546 159.045 171.177C160.502 171.782 160.901 173.76 161.884 175.034C162.865 176.306 164.461 177.177 164.884 178.748C165.309 180.325 164.448 181.951 164.183 183.566C163.939 185.057 164.029 186.637 163.369 187.984C162.715 189.322 161.351 190.081 160.43 191.236C159.417 192.507 159.054 194.471 157.625 195.188C156.212 195.897 154.527 194.859 152.962 194.983C151.326 195.112 149.774 196.291 148.17 195.937C146.577 195.586 145.261 194.336 144.198 193.051C143.174 191.812 142.876 190.13 142.163 188.672C141.464 187.241 140.047 186.066 140.001 184.461C139.955 182.83 141.208 181.492 141.917 180.037C142.526 178.79 143.287 177.671 143.916 176.435C144.617 175.057 144.697 173.236 145.87 172.267C147.028 171.311 148.685 171.35 150.161 171.277C151.538 171.209 152.846 171.868 154.225 171.853Z" fill="#3C5D87"/><path d="M358.307 127.982C359.766 130.297 358.02 133.353 357.804 136.067C357.604 138.589 357.924 141.181 357.071 143.556C356.218 145.935 354.438 147.796 352.883 149.782C351.271 151.842 350.179 154.795 347.675 155.561C345.042 156.367 342.37 153.535 339.629 153.837C336.861 154.143 334.802 158.055 332.116 157.278C329.41 156.496 329.719 151.946 327.419 150.306C325.072 148.632 321.196 150.101 319.17 148.047C317.28 146.133 318.062 142.864 317.487 140.242C316.906 137.594 314.783 134.895 315.73 132.372C316.743 129.675 320.825 129.453 322.435 127.069C323.93 124.853 322.621 121.263 324.506 119.372C326.324 117.548 329.526 118.387 331.953 117.518C334.513 116.6 336.571 113.658 339.27 114.081C342.045 114.516 343.469 117.741 345.546 119.649C347.206 121.175 348.499 123.061 350.386 124.293C352.848 125.901 356.739 125.492 358.307 127.982Z" fill="#3C5D87"/><path d="M292.805 166.238C297.974 165.78 302.933 161.963 307.954 163.277C312.773 164.537 316.005 169.168 319.077 173.109C322.103 176.99 324.283 181.441 325.776 186.138C327.254 190.785 328.513 195.683 327.79 200.507C327.08 205.244 323.485 208.93 321.693 213.369C319.871 217.88 319.974 223.194 317.059 227.082C314.102 231.025 309.821 234.168 305.095 235.508C300.415 236.834 295.491 235.141 290.663 234.562C286.37 234.048 282.299 232.801 278.01 232.262C272.946 231.626 267.172 233.841 262.876 231.071C258.695 228.375 257.04 222.845 255.875 217.99C254.781 213.43 257.193 208.668 256.394 204.046C255.574 199.307 249.988 195.403 251.161 190.739C252.349 186.017 258.937 185.004 262.109 181.324C264.882 178.107 265.39 173.238 268.618 170.484C271.874 167.706 276.195 166.456 280.402 165.717C284.514 164.995 288.648 166.606 292.805 166.238Z" fill="#3C5D87"/><path d="M195.434 87.1579C199.412 87.5949 203.552 87.3314 207.152 89.0931C210.77 90.8641 213.34 94.1332 215.964 97.2059C218.639 100.339 221.912 103.334 222.763 107.377C223.611 111.405 222.012 115.527 220.639 119.406C219.394 122.923 216.807 125.666 215.115 128.988C213.242 132.666 213.611 138.058 210.073 140.151C206.481 142.275 201.884 138.775 197.747 139.261C193.813 139.722 190.458 143.653 186.566 142.91C182.722 142.175 180.831 137.712 177.648 135.42C174.26 132.979 169.432 132.392 167.118 128.904C164.811 125.425 164.802 120.808 165.193 116.643C165.565 112.681 168.074 109.367 169.306 105.586C170.599 101.619 170.251 97.0547 172.68 93.6713C175.17 90.2026 178.962 87.6152 183.049 86.4452C187.071 85.2941 191.278 86.7013 195.434 87.1579Z" fill="#3C5D87"/><path d="M215.488 165.043C219.14 164.896 222.991 165.076 226.18 166.881C229.407 168.707 231.872 171.815 233.437 175.203C234.946 178.472 235.154 182.203 234.917 185.802C234.702 189.077 232.808 191.914 232.125 195.122C231.401 198.527 232.691 202.481 230.756 205.362C228.836 208.219 224.921 208.739 221.898 210.349C218.822 211.987 216.137 214.842 212.664 214.996C209.191 215.15 206.237 212.617 203.064 211.183C200.007 209.802 196.916 208.626 194.197 206.652C191.192 204.471 187.334 202.565 186.262 198.986C185.178 195.366 187.753 191.699 188.614 188.018C189.355 184.846 189.474 181.518 191.016 178.656C192.546 175.815 194.869 173.506 197.457 171.603C199.99 169.74 202.966 168.772 205.914 167.7C209.062 166.554 212.145 165.179 215.488 165.043Z" fill="#3C5D87"/><path d="M291.413 81.3761C294.246 81.7148 297.098 82.422 299.45 84.0448C301.732 85.6198 303.367 87.9858 304.602 90.4769C305.74 92.7726 305.739 95.3914 306.313 97.8907C306.88 100.363 308.148 102.696 307.986 105.228C307.818 107.844 306.899 110.423 305.373 112.548C303.859 114.657 301.351 115.683 299.321 117.297C297.067 119.089 295.413 121.817 292.662 122.654C289.874 123.502 286.881 122.622 284.048 121.943C281.131 121.245 278.102 120.532 275.789 118.612C273.47 116.686 271.963 113.919 270.953 111.07C269.983 108.337 269.895 105.402 270.076 102.506C270.249 99.75 270.512 96.869 271.988 94.5403C273.42 92.2823 276.475 91.6773 278.224 89.6577C280.181 87.3985 280.276 83.6408 282.803 82.054C285.272 80.5038 288.523 81.0304 291.413 81.3761Z" fill="#3C5D87"/><path d="M127.49 131.439C130.389 130.991 134.004 130.412 136.136 132.427C138.434 134.598 137.043 138.64 138.219 141.575C139.11 143.798 141.412 145.208 142.168 147.48C142.958 149.856 143.319 152.482 142.65 154.895C141.985 157.292 139.735 158.832 138.432 160.95C136.992 163.289 136.608 166.315 134.522 168.1C132.38 169.931 129.498 170.947 126.681 171.001C123.894 171.054 121.108 170.007 118.829 168.401C116.699 166.9 115.769 164.287 114.199 162.207C112.851 160.422 111.328 158.847 110.171 156.933C108.892 154.815 107.135 152.779 107.007 150.308C106.88 147.827 108.419 145.611 109.472 143.361C110.527 141.105 111.275 138.538 113.233 137C115.182 135.469 117.964 135.777 120.273 134.876C122.783 133.897 124.828 131.85 127.49 131.439Z" fill="#3C5D87"/><path d="M244.079 100.619C245.149 100.884 246.357 100.264 247.351 100.753C248.347 101.244 248.595 102.679 249.522 103.299C250.712 104.095 252.568 103.708 253.464 104.844C254.284 105.883 253.938 107.472 253.868 108.811C253.801 110.09 253.689 111.425 253.061 112.528C252.448 113.606 251.215 114.1 250.357 114.98C249.573 115.783 249.171 117.01 248.187 117.526C247.203 118.042 246.02 117.794 244.917 117.832C243.89 117.868 242.89 117.772 241.863 117.748C240.656 117.719 239.267 118.383 238.274 117.675C237.277 116.965 237.511 115.317 236.919 114.225C236.383 113.234 235.42 112.557 234.948 111.532C234.439 110.425 233.803 109.201 234.058 108.004C234.317 106.787 235.79 106.247 236.312 105.125C236.869 103.928 236.465 102.379 237.186 101.28C237.909 100.179 239.043 99.1344 240.325 99.0114C241.685 98.881 242.75 100.29 244.079 100.619Z" fill="#3C5D87"/><path d="M167.729 145.087C168.281 146.042 169.566 146.48 169.904 147.536C170.242 148.593 169.381 149.768 169.578 150.865C169.831 152.275 171.399 153.342 171.203 154.775C171.023 156.087 169.64 156.941 168.627 157.82C167.66 158.659 166.622 159.506 165.391 159.819C164.19 160.126 162.979 159.581 161.749 159.575C160.627 159.568 159.465 160.131 158.411 159.78C157.355 159.43 156.714 158.406 155.92 157.638C155.182 156.925 154.556 156.138 153.861 155.382C153.044 154.493 151.602 153.954 151.422 152.747C151.241 151.537 152.59 150.561 152.965 149.378C153.306 148.304 153.125 147.141 153.536 146.089C153.979 144.954 154.419 143.647 155.458 142.999C156.513 142.342 157.924 143.027 159.094 142.624C160.342 142.194 161.177 140.828 162.469 140.584C163.764 140.34 165.302 140.431 166.281 141.269C167.319 142.157 167.044 143.902 167.729 145.087Z" fill="#3C5D87"/><path d="M289.108 140.134C290.131 139.721 290.744 138.51 291.836 138.322C292.931 138.135 293.974 139.151 295.088 139.109C296.519 139.056 297.795 137.652 299.186 138.046C300.46 138.406 301.113 139.895 301.842 141.021C302.539 142.095 303.232 143.241 303.371 144.504C303.507 145.736 302.799 146.86 302.621 148.076C302.458 149.186 302.853 150.416 302.359 151.411C301.865 152.407 300.761 152.899 299.891 153.578C299.081 154.21 298.214 154.72 297.369 155.303C296.375 155.988 295.64 157.341 294.42 157.35C293.196 157.36 292.419 155.889 291.299 155.352C290.283 154.865 289.106 154.882 288.122 154.329C287.06 153.732 285.827 153.114 285.33 151.995C284.826 150.859 285.701 149.556 285.465 148.341C285.213 147.046 283.977 146.028 283.916 144.716C283.855 143.399 284.16 141.888 285.126 141.036C286.15 140.132 287.84 140.648 289.108 140.134Z" fill="#3C5D87"/></g><rect x="128" y="94.0029" width="208" height="112" rx="2.8" stroke="#3C5D87" stroke-width="2"/><path d="M152 108.803C152 107.257 153.254 106.003 154.8 106.003H309.2C310.746 106.003 312 107.257 312 108.803V191.203C312 192.749 310.746 194.003 309.2 194.003H154.8C153.254 194.003 152 192.749 152 191.203V108.803Z" fill="white" stroke="#3C5D87" stroke-width="2"/><rect opacity="0.15" x="156" y="190.003" width="152" height="8" rx="3" fill="#3C5D87"/><circle cx="191" cy="128.003" r="5" fill="#3C5D87" stroke="#3C5D87" stroke-width="2"/><path d="M204 125.003H277" stroke="#FFD9AB" stroke-width="2" stroke-linecap="round" stroke-linejoin="round"/><path d="M204 131.003H277" stroke="#FFD9AB" stroke-width="2" stroke-linecap="round" stroke-linejoin="round"/><circle cx="191" cy="150.003" r="5" fill="white" stroke="#3C5D87" stroke-width="2"/><path d="M204 147.003H277" stroke="#FFD9AB" stroke-width="2" stroke-linecap="round" stroke-linejoin="round"/><path d="M204 153.003H277" stroke="#FFD9AB" stroke-width="2" stroke-linecap="round" stroke-linejoin="round"/><circle cx="191" cy="172.003" r="5" fill="white" stroke="#3C5D87" stroke-width="2"/><path d="M204 169.003H277" stroke="#FFD9AB" stroke-width="2" stroke-linecap="round" stroke-linejoin="round"/><path d="M204 175.003H277" stroke="#FFD9AB" stroke-width="2" stroke-linecap="round" stroke-linejoin="round"/><path d="M212 82.1279C212 79.8498 213.847 78.0029 216.125 78.0029H247.875C250.153 78.0029 252 79.8498 252 82.1279C252 83.1635 251.161 84.0029 250.125 84.0029H213.875C212.839 84.0029 212 83.1635 212 82.1279Z" fill="white" stroke="#3C5D87" stroke-width="2"/><path d="M244.5 81.0029H247" stroke="#FFD9AB" stroke-width="2" stroke-linecap="round"/><path d="M220 66.0029C220 59.3755 225.373 54.0029 232 54.0029C238.627 54.0029 244 59.3755 244 66.0029C244 72.6303 238.627 78.0029 232 78.0029C225.373 78.0029 220 72.6303 220 66.0029Z" fill="#FFD9AB" stroke="#3C5D87" stroke-width="2"/><path d="M226 66.0029C226 62.6892 228.686 60.0029 232 60.0029C235.314 60.0029 238 62.6892 238 66.0029C238 69.3166 235.314 72.0029 232 72.0029C228.686 72.0029 226 69.3166 226 66.0029Z" fill="#3C5D87" stroke="#3C5D87" stroke-width="2"/><path d="M228 64.5029C228 63.1222 229.119 62.0029 230.5 62.0029C231.881 62.0029 233 63.1222 233 64.5029C233 65.8836 231.881 67.0029 230.5 67.0029C229.119 67.0029 228 65.8836 228 64.5029Z" fill="white"/><path d="M310 247.336C310 246.098 310 245.478 310.078 244.96C310.536 241.923 312.92 239.539 315.957 239.081C316.475 239.003 317.095 239.003 318.333 239.003H325.667C326.905 239.003 327.525 239.003 328.043 239.081C331.08 239.539 333.464 241.923 333.922 244.96C334 245.478 334 246.098 334 247.336C334 247.584 334 247.708 333.984 247.812C333.893 248.419 333.416 248.896 332.809 248.987C332.705 249.003 332.581 249.003 332.333 249.003H311.667C311.419 249.003 311.295 249.003 311.191 248.987C310.584 248.896 310.107 248.419 310.016 247.812C310 247.708 310 247.584 310 247.336Z" fill="white" stroke="#3C5D87" stroke-width="2"/><path d="M170 246.929C170 245.135 170 244.237 170.283 243.526C170.689 242.503 171.5 241.692 172.523 241.286C173.235 241.003 174.132 241.003 175.926 241.003H288.074C289.868 241.003 290.765 241.003 291.477 241.286C292.5 241.692 293.311 242.503 293.717 243.526C294 244.237 294 245.135 294 246.929C294 247.557 294 247.871 293.901 248.12C293.759 248.478 293.475 248.762 293.117 248.904C292.868 249.003 292.554 249.003 291.926 249.003H172.074C171.446 249.003 171.132 249.003 170.883 248.904C170.525 248.762 170.241 248.478 170.099 248.12C170 247.871 170 247.557 170 246.929Z" fill="white" stroke="#3C5D87" stroke-width="2"/><rect opacity="0.15" x="177" y="245.003" width="78" height="7" rx="3" fill="#3C5D87"/><path d="M178 239.744C178 239.335 178.332 239.003 178.741 239.003H182.259C182.668 239.003 183 239.335 183 239.744C183 239.887 182.884 240.003 182.741 240.003H178.259C178.116 240.003 178 239.887 178 239.744Z" fill="#3C5D87" stroke="#3C5D87" stroke-width="2"/><path d="M186 239.744C186 239.335 186.332 239.003 186.741 239.003H190.259C190.668 239.003 191 239.335 191 239.744C191 239.887 190.884 240.003 190.741 240.003H186.259C186.116 240.003 186 239.887 186 239.744Z" fill="#3C5D87" stroke="#3C5D87" stroke-width="2"/><path d="M194 239.744C194 239.335 194.332 239.003 194.741 239.003H198.259C198.668 239.003 199 239.335 199 239.744C199 239.887 198.884 240.003 198.741 240.003H194.259C194.116 240.003 194 239.887 194 239.744Z" fill="#3C5D87" stroke="#3C5D87" stroke-width="2"/><path d="M202 239.744C202 239.335 202.332 239.003 202.741 239.003H206.259C206.668 239.003 207 239.335 207 239.744C207 239.887 206.884 240.003 206.741 240.003H202.259C202.116 240.003 202 239.887 202 239.744Z" fill="#3C5D87" stroke="#3C5D87" stroke-width="2"/><path d="M210 239.744C210 239.335 210.332 239.003 210.741 239.003H253.259C253.668 239.003 254 239.335 254 239.744C254 239.887 253.884 240.003 253.741 240.003H210.259C210.116 240.003 210 239.887 210 239.744Z" fill="#3C5D87" stroke="#3C5D87" stroke-width="2"/><path d="M257 239.744C257 239.335 257.332 239.003 257.741 239.003H261.259C261.668 239.003 262 239.335 262 239.744C262 239.887 261.884 240.003 261.741 240.003H257.259C257.116 240.003 257 239.887 257 239.744Z" fill="#3C5D87" stroke="#3C5D87" stroke-width="2"/><path d="M265 239.744C265 239.335 265.332 239.003 265.741 239.003H269.259C269.668 239.003 270 239.335 270 239.744C270 239.887 269.884 240.003 269.741 240.003H265.259C265.116 240.003 265 239.887 265 239.744Z" fill="#3C5D87" stroke="#3C5D87" stroke-width="2"/><path d="M273 239.744C273 239.335 273.332 239.003 273.741 239.003H277.259C277.668 239.003 278 239.335 278 239.744C278 239.887 277.884 240.003 277.741 240.003H273.259C273.116 240.003 273 239.887 273 239.744Z" fill="#3C5D87" stroke="#3C5D87" stroke-width="2"/><path d="M281 239.744C281 239.335 281.332 239.003 281.741 239.003H285.259C285.668 239.003 286 239.335 286 239.744C286 239.887 285.884 240.003 285.741 240.003H281.259C281.116 240.003 281 239.887 281 239.744Z" fill="#3C5D87" stroke="#3C5D87" stroke-width="2"/><path d="M416.002 239.316L409.402 232.717" stroke="#FFD9AB" stroke-width="2" stroke-linecap="round"/><path d="M420.688 228.003L411.354 228.003" stroke="#FFD9AB" stroke-width="2" stroke-linecap="round"/><path d="M409.402 223.289L416.002 216.689" stroke="#FFD9AB" stroke-width="2" stroke-linecap="round"/><path d="M576 315.002L566.667 315.002" stroke="#FFD9AB" stroke-width="2" stroke-linecap="round"/><path d="M571.314 303.688L564.715 310.288" stroke="#FFD9AB" stroke-width="2" stroke-linecap="round"/><path d="M560 308.335V299.002" stroke="#FFD9AB" stroke-width="2" stroke-linecap="round"/><path d="M336 535.002L345.333 535.002" stroke="#FFD9AB" stroke-width="2" stroke-linecap="round"/><path d="M340.686 523.688L347.285 530.288" stroke="#FFD9AB" stroke-width="2" stroke-linecap="round"/><path d="M352 528.335V519.002" stroke="#FFD9AB" stroke-width="2" stroke-linecap="round"/><path d="M75 627.002L84.3333 627.002" stroke="#FFD9AB" stroke-width="2" stroke-linecap="round"/><path d="M79.6855 638.315L86.2852 631.716" stroke="#FFD9AB" stroke-width="2" stroke-linecap="round"/><path d="M91 633.669V643.002" stroke="#FFD9AB" stroke-width="2" stroke-linecap="round"/></svg>