<svg width="406" height="208" viewBox="0 0 406 208" fill="none" xmlns="http://www.w3.org/2000/svg"><rect opacity="0.25" y="40.001" width="405.33" height="128" rx="12" fill="#FFD9AB"/><g clip-path="url(#clip0_100_2579)"><path opacity="0.3" d="M306 70.501C306 68.0157 308.015 66.001 310.5 66.001H429.5C431.985 66.001 434 68.0157 434 70.501C434 72.9863 431.985 75.001 429.5 75.001H310.5C308.015 75.001 306 72.9863 306 70.501Z" fill="#FFD9AB"/><path opacity="0.3" d="M366 40.001C366 39.4487 366.448 39.001 367 39.001H411C411.552 39.001 412 39.4487 412 40.001V65.001C412 65.5533 411.552 66.001 411 66.001H367C366.448 66.001 366 65.5533 366 65.001V40.001Z" fill="#FFD9AB"/><path opacity="0.3" d="M358.01 35.5671C358.261 35.0754 358.863 34.8806 359.355 35.132L365.588 38.3186C366.08 38.57 366.274 39.1724 366.023 39.6642L352.513 66.0878C352.262 66.5796 351.659 66.7744 351.168 66.523L344.935 63.3364C344.443 63.085 344.248 62.4825 344.5 61.9908L358.01 35.5671Z" fill="#FFD9AB"/><path opacity="0.3" d="M307 151.001C307 142.516 307 138.273 309.636 135.637C312.272 133.001 316.515 133.001 325 133.001H410C418.485 133.001 422.728 133.001 425.364 135.637C428 138.273 428 142.516 428 151.001V158.001C428 166.486 428 170.729 425.364 173.365C422.728 176.001 418.485 176.001 410 176.001H325C316.515 176.001 312.272 176.001 309.636 173.365C307 170.729 307 166.486 307 158.001V151.001Z" fill="#FFD9AB"/><path opacity="0.3" d="M-65 109.001C-65 100.516 -65 96.2731 -62.364 93.637C-59.7279 91.001 -55.4853 91.001 -47 91.001H-2C6.48528 91.001 10.7279 91.001 13.364 93.637C16 96.2731 16 100.516 16 109.001V166.001C16 174.486 16 178.729 13.364 181.365C10.7279 184.001 6.48528 184.001 -2 184.001H-47C-55.4853 184.001 -59.7279 184.001 -62.364 181.365C-65 178.729 -65 174.486 -65 166.001V109.001Z" fill="#FFD9AB"/><g opacity="0.3"><path d="M44 72.001V22.001H118V72.001H44Z" fill="#FFD9AB" stroke="white" stroke-width="10"/><path d="M39 21.001C39 18.7918 40.7909 17.001 43 17.001H119C121.209 17.001 123 18.7918 123 21.001V73.001C123 75.2101 121.209 77.001 119 77.001H43C40.7909 77.001 39 75.2101 39 73.001V21.001Z" stroke="#FFD9AB" stroke-width="3"/></g></g><g opacity="0.7"><path d="M45.7205 147.182L66.2507 165.146" stroke="#FFD9AB" stroke-width="2" stroke-linecap="round"/><path d="M61.7597 151.673L76.8366 164.504" stroke="#FFD9AB" stroke-width="2" stroke-linecap="round"/><path d="M61.1181 121.519L78.1198 166.75" stroke="#FFD9AB" stroke-width="2" stroke-linecap="round"/><path d="M87.1018 149.106L79.4029 168.674" stroke="#FFD9AB" stroke-width="2" stroke-linecap="round"/><path d="M107.953 153.918L88.3849 165.466" stroke="#FFD9AB" stroke-width="2" stroke-linecap="round"/><path d="M95.1214 126.972L71.7041 166.429" stroke="#FFD9AB" stroke-width="2" stroke-linecap="round"/><ellipse cx="103.204" cy="128.455" rx="23.6462" ry="7.76309" transform="rotate(35.2069 103.204 128.455)" fill="#FFD9AB" stroke="#FFD9AB" stroke-width="2" stroke-linecap="round" stroke-linejoin="round"/><ellipse cx="39.7558" cy="144.536" rx="18.8095" ry="8.34001" transform="rotate(-40.1396 39.7558 144.536)" fill="#FFD9AB" stroke="#FFD9AB" stroke-width="2" stroke-linecap="round" stroke-linejoin="round"/><ellipse cx="60.1057" cy="149.36" rx="6.87225" ry="6.06061" transform="rotate(-46.3634 60.1057 149.36)" fill="#FFD9AB" stroke="#FFD9AB" stroke-width="2" stroke-linecap="round" stroke-linejoin="round"/><ellipse cx="90.7786" cy="146.072" rx="10.4219" ry="6.59426" transform="rotate(24.1977 90.7786 146.072)" fill="#FFD9AB" stroke="#FFD9AB" stroke-width="2" stroke-linecap="round" stroke-linejoin="round"/><ellipse cx="112.244" cy="154.863" rx="10.1826" ry="5.67497" transform="rotate(52.4194 112.244 154.863)" fill="#FFD9AB" stroke="#FFD9AB" stroke-width="2" stroke-linecap="round" stroke-linejoin="round"/><ellipse cx="58.8854" cy="117.711" rx="14.579" ry="13.2018" transform="rotate(68.697 58.8854 117.711)" fill="#FFD9AB" stroke="#FFD9AB" stroke-width="2" stroke-linecap="round" stroke-linejoin="round"/><rect width="46.8346" height="28.8707" rx="4" transform="matrix(-1 0 0 1 100.196 164.131)" fill="#FFD9AB" stroke="#FFD9AB" stroke-width="2" stroke-linecap="round" stroke-linejoin="round"/></g><path d="M45 195.001L360 195.001" stroke="#3C5D87" stroke-width="2" stroke-linecap="round"/><path d="M37 195.001L40 195.001" stroke="#3C5D87" stroke-width="2" stroke-linecap="round"/><path d="M365 195.001L368 195.001" stroke="#3C5D87" stroke-width="2" stroke-linecap="round"/><rect x="272.998" y="177.046" width="8.82966" height="16.6164" rx="2.07936" fill="#3C5D87" stroke="#3C5D87" stroke-width="1.84127"/><rect x="127.234" y="177.046" width="8.82966" height="16.6164" rx="2.07936" fill="#3C5D87" stroke="#3C5D87" stroke-width="1.84127"/><rect x="110.38" y="124.202" width="40.2608" height="57.2517" rx="10.5873" fill="#FFD9AB" stroke="#3C5D87" stroke-width="1.84127"/><rect x="126.263" y="90.5898" width="164.737" height="90.8639" rx="9.45984" fill="#FFD9AB"/><path d="M149 92.401H149.1H274.02C281.176 92.401 284.754 92.401 286.977 94.6241C289.2 96.8471 289.2 100.425 289.2 107.581V116.401" stroke="white" stroke-width="1.84127" stroke-linecap="round"/><path d="M126.263 109.51C126.263 100.591 126.263 96.1313 129.033 93.3606C131.804 90.5898 136.264 90.5898 145.182 90.5898H272.08C280.999 90.5898 285.458 90.5898 288.229 93.3606C291 96.1313 291 100.591 291 109.51V163.454C291 171.939 291 176.182 288.364 178.818C285.727 181.454 281.485 181.454 273 181.454H145.182C136.264 181.454 131.804 181.454 129.033 178.683C126.263 175.912 126.263 171.453 126.263 162.534V109.51Z" stroke="#3C5D87" stroke-width="1.84127"/><path d="M121.675 167.602C121.675 164.568 121.675 163.05 121.984 161.8C122.926 157.983 125.907 155.002 129.724 154.06C130.974 153.751 132.491 153.751 135.526 153.751H271.705C276.088 153.751 278.279 153.751 280.034 154.39C282.974 155.46 285.29 157.776 286.36 160.716C286.999 162.471 286.999 164.662 286.999 169.045C286.999 172.6 286.999 174.378 286.481 175.802C285.612 178.187 283.733 180.067 281.348 180.935C279.924 181.453 278.146 181.453 274.591 181.453H135.526C132.491 181.453 130.974 181.453 129.724 181.145C125.907 180.202 122.926 177.222 121.984 173.404C121.675 172.154 121.675 170.637 121.675 167.602Z" fill="#FFD9AB" stroke="#3C5D87" stroke-width="1.84127"/><path d="M216.556 130.844L226.084 118.1" stroke="#C29980" stroke-width="9.20637"/><path fill-rule="evenodd" clip-rule="evenodd" d="M221.677 127.845L234.404 127.064C238.474 126.944 243.408 127.909 247.246 131.599C251.326 135.52 252.368 140.798 251.542 145.268C250 153.605 258.09 153.12 250.419 154.954C240.549 157.314 223.533 157.204 211.36 155.894C210.204 155.769 209.053 156.175 208.264 157.028C205.284 160.25 202.084 164.089 197.451 170.038C196.201 171.643 193.889 171.947 192.277 170.707L180.237 161.445C178.625 160.205 178.323 157.89 179.573 156.285C186.144 147.843 190.449 142.824 195.393 137.88C200.185 133.088 206.068 132.344 210.598 132.871C220.369 134.007 222.043 140.289 221.677 127.845Z" fill="#3C5D87"/><rect x="247.784" y="124.202" width="43.216" height="57.2517" rx="10.5873" fill="#FFD9AB"/><rect x="247.784" y="124.202" width="43.216" height="57.2517" rx="10.5873" fill="#FFD9AB"/><path d="M269 126.001H269.1H272.02C280.119 126.001 284.168 126.001 286.684 128.517C289.2 131.033 289.2 135.082 289.2 143.181V170.001" stroke="white" stroke-width="1.84127" stroke-linecap="round"/><path d="M247.784 145.377C247.784 135.395 247.784 130.404 250.885 127.303C253.986 124.202 258.977 124.202 268.959 124.202H269.826C279.807 124.202 284.798 124.202 287.899 127.303C291 130.404 291 135.395 291 145.377V165.454C291 172.996 291 176.768 288.657 179.111C286.314 181.454 282.543 181.454 275 181.454H268.959C258.977 181.454 253.986 181.454 250.885 178.353C247.784 175.252 247.784 170.261 247.784 160.279V145.377Z" stroke="#3C5D87" stroke-width="1.84127"/><path d="M244.223 124.205H222.691V128.94H244.223V124.205Z" fill="white"/><path d="M223.903 152.037C224.464 147.087 220.062 142.524 214.071 141.845C208.079 141.165 202.767 144.628 202.206 149.578L198.657 180.881C198.457 182.65 199.728 184.246 201.496 184.446L216.79 186.18C218.558 186.38 220.154 185.109 220.355 183.341L223.903 152.037Z" fill="#3C5D87"/><path d="M238.027 124.932H235.546V128.991H238.027V124.932Z" fill="#001836"/><path d="M228.193 124.915H225.644V130.013H228.193V124.915Z" fill="#001836"/><path d="M223.656 124.454H221.707L221.713 130.184H223.662L223.656 124.454Z" fill="#3C5D87"/><path d="M244.62 124.454H242.671L242.677 130.184H244.626L244.62 124.454Z" fill="#001836"/><path d="M223.726 103.221H242.894V109.702C246.67 111.889 249.211 115.974 249.211 120.652C249.211 123.395 246.987 125.619 244.243 125.619H222.43C219.687 125.619 217.463 123.395 217.463 120.652C217.463 115.996 219.979 111.928 223.726 109.733V103.221Z" fill="#FFE999" stroke="#3C5D87" stroke-width="1.84127"/><path d="M241.379 103.906L241.374 109.642C241.373 110.221 241.739 110.729 242.254 110.995C247.566 113.741 250.262 122.513 244.962 123.613" stroke="white" stroke-width="1.84127" stroke-linecap="round"/><path d="M223.726 103.221H242.894V109.702C246.67 111.889 249.211 115.974 249.211 120.652C249.211 123.395 246.987 125.619 244.243 125.619H222.43C219.687 125.619 217.463 123.395 217.463 120.652C217.463 115.996 219.979 111.928 223.726 109.733V103.221Z" stroke="#3C5D87" stroke-width="1.84127"/><path fill-rule="evenodd" clip-rule="evenodd" d="M239.723 111.66C243.059 105.516 250.513 110.586 254.669 112.527C258.286 114.216 262.739 116.177 264.753 119.874C266.924 123.859 264.84 128.081 261.16 130.172C259.769 130.962 258.091 131.595 256.236 132.136C253.429 132.954 250.49 131.343 249.672 128.536C249.034 126.348 249.318 124.812 251.049 123.53C246.996 122.885 244.731 121.032 241.473 119.574C238.804 118.38 238.172 114.664 239.723 111.66ZM256.109 120.852C256.11 120.852 256.097 120.863 256.068 120.882C256.093 120.862 256.108 120.852 256.109 120.852Z" fill="#C29980" stroke="#3C5D87" stroke-width="1.84127" stroke-linecap="round"/><path d="M173.752 162.11C172.202 161.114 170.139 161.564 169.144 163.113C168.148 164.663 168.597 166.726 170.147 167.722L178.741 173.242C180.29 174.237 182.354 173.788 183.349 172.239C184.345 170.689 183.895 168.626 182.346 167.63L173.752 162.11Z" fill="#FFD9AB" stroke="#3C5D87" stroke-width="1.84127"/><path d="M203.209 188.028C201.367 188.028 199.874 189.521 199.874 191.362C199.874 193.204 201.367 194.697 203.209 194.697H213.423C215.265 194.697 216.758 193.204 216.758 191.362C216.758 189.521 215.265 188.028 213.423 188.028H203.209Z" fill="#FFD9AB" stroke="#3C5D87" stroke-width="1.84127"/><path d="M215.243 132.198C214.481 132.198 213.862 132.816 213.862 133.578V136.372C213.862 137.134 214.481 137.752 215.243 137.752H233.017C233.78 137.752 234.398 137.134 234.398 136.372V133.578C234.398 132.816 233.78 132.198 233.017 132.198H215.243Z" fill="white"/><path d="M215.243 132.198C214.481 132.198 213.862 132.816 213.862 133.578V136.372C213.862 137.134 214.481 137.752 215.243 137.752H233.017C233.78 137.752 234.398 137.134 234.398 136.372V133.578C234.398 132.816 233.78 132.198 233.017 132.198H215.243Z" fill="#3C5D87" fill-opacity="0.3"/><path d="M215.243 132.198C214.481 132.198 213.862 132.816 213.862 133.578V136.372C213.862 137.134 214.481 137.752 215.243 137.752H233.017C233.78 137.752 234.398 137.134 234.398 136.372V133.578C234.398 132.816 233.78 132.198 233.017 132.198H215.243Z" stroke="#3C5D87" stroke-width="1.84127"/><path fill-rule="evenodd" clip-rule="evenodd" d="M242.577 121.395C242.577 121.004 242.261 120.688 241.87 120.688H227.733C227.342 120.688 227.026 121.004 227.026 121.395V127.907C227.026 129.27 227.453 130.598 228.247 131.706C229.471 133.414 231.444 134.427 233.545 134.427H236.058C238.159 134.427 240.132 133.414 241.356 131.706C241.938 130.894 242.323 129.963 242.487 128.987C242.535 128.989 242.583 128.99 242.631 128.99C244.731 128.99 246.565 127.444 246.565 125.383C246.565 123.321 244.731 121.776 242.631 121.776C242.613 121.776 242.595 121.776 242.577 121.776V121.395ZM242.577 123.19C242.595 123.19 242.613 123.19 242.631 123.19C244.096 123.19 245.151 124.241 245.151 125.383C245.151 126.524 244.096 127.576 242.631 127.576C242.613 127.576 242.595 127.575 242.577 127.575V123.19Z" fill="white"/><path d="M243.426 120.92C243.222 120.254 242.603 119.77 241.87 119.77H227.733C226.834 119.77 226.105 120.498 226.105 121.397V127.91C226.105 129.465 226.592 130.981 227.498 132.245C228.895 134.194 231.147 135.35 233.545 135.35H236.058C238.456 135.35 240.707 134.194 242.104 132.245C242.621 131.524 243.001 130.721 243.233 129.876C245.501 129.606 247.485 127.834 247.485 125.385C247.485 123.005 245.613 121.265 243.426 120.92ZM243.498 126.455V124.314C243.979 124.568 244.23 125.015 244.23 125.385C244.23 125.755 243.979 126.202 243.498 126.455Z" stroke="#3C5D87" stroke-width="1.84127" stroke-linecap="round" stroke-linejoin="round"/><path d="M248.528 132.958C252.126 134.135 255.961 131.967 257.171 128.271C258.38 124.576 256.57 120.56 252.972 119.382C249.373 118.204 245.538 120.373 244.328 124.068C243.119 127.763 244.93 131.78 248.528 132.958Z" fill="#C29980" stroke="#3C5D87" stroke-width="1.84127"/><path d="M251.03 114.246L263.263 123.255L260.596 129.354C255.262 132.372 251.007 131.597 250.503 131.432C249.999 131.267 251.03 114.246 251.03 114.246Z" fill="#C29980"/><path d="M242.509 41.4752C241.576 55.4565 231.523 66.1698 220.056 65.404C208.589 64.6383 200.05 52.6834 200.983 38.7021C201.917 24.7208 211.97 14.0075 223.437 14.7732C234.904 15.539 243.443 27.4938 242.509 41.4752Z" fill="#3C5D87"/><path d="M251.909 56.0973C243.514 63.9686 231.475 64.7677 225.02 57.8824C218.564 50.997 220.136 39.0344 228.531 31.1631C236.926 23.2919 248.965 22.4927 255.421 29.3781C261.876 36.2635 260.304 48.2261 251.909 56.0973Z" fill="#3C5D87"/><path d="M190.462 59.9274C197.054 69.3604 208.669 72.6246 216.406 67.2182C224.142 61.8119 225.071 49.7822 218.479 40.3492C211.887 30.9161 200.272 27.6519 192.535 33.0583C184.798 38.4646 183.87 50.4943 190.462 59.9274Z" fill="#3C5D87"/><path d="M209.658 67.0316C204.985 67.8896 201.893 72.3728 202.751 77.0451L203.585 81.5867C203.689 82.1516 203.309 82.6753 202.765 82.7753C200.181 83.2498 198.471 85.7292 198.945 88.3132C199.42 90.8971 201.899 92.6072 204.483 92.1326C205.028 92.0327 205.569 92.3872 205.673 92.9521L207.035 100.369C208.059 105.947 213.411 109.638 218.988 108.613L246.218 103.613C251.795 102.589 255.486 97.2368 254.462 91.6594L253.102 84.2534C252.997 83.6812 253.382 83.1527 253.932 83.0518C256.516 82.5773 258.226 80.0979 257.751 77.5139C257.277 74.93 254.797 73.2199 252.213 73.6945C251.664 73.7953 251.116 73.4383 251.011 72.8661L250.179 68.3354C249.321 63.6631 244.838 60.5711 240.165 61.4291L209.658 67.0316Z" fill="#C29980" stroke="#3C5D87" stroke-width="1.84127"/><path fill-rule="evenodd" clip-rule="evenodd" d="M233.221 93.8008C232.646 93.6126 232.027 93.9265 231.839 94.5018C231.331 96.0528 229.957 98.262 226.179 98.9558C225.583 99.0651 225.189 99.6364 225.299 100.232C225.408 100.827 225.979 101.221 226.575 101.112C231.275 100.249 233.21 97.361 233.922 95.1832C234.11 94.6078 233.796 93.9889 233.221 93.8008Z" fill="#3C5D87"/><path d="M220.452 87.5668C220.354 89.9002 219.288 93.5597 216.284 94.1381C212.489 94.8973 209.925 92.3838 209.459 89.1543C208.992 85.9248 211.827 82.8429 214.595 82.4431C217.364 82.0433 219.986 84.3373 220.452 87.5668Z" fill="white"/><path d="M217.299 93.8598C217.504 94.9746 218.728 95.684 220.033 95.4443C221.338 95.2047 222.23 94.1066 222.026 92.9918C221.821 91.877 221.557 90.6731 220.252 90.9127C218.946 91.1524 217.062 92.5767 217.299 93.8598Z" fill="#C29980"/><path d="M209.122 90.8804C206.181 82.4957 218.594 77.1461 220.566 89.6951" stroke="#3C5D87" stroke-width="1.84127" stroke-linecap="round"/><path d="M226.047 86.5399C226.759 89.7243 229.265 91.728 232.278 91.2015C236.095 90.5629 237.599 87.3023 236.887 84.1178C236.176 80.9333 232.431 79.0596 229.701 79.6695C226.972 80.2794 225.335 83.3554 226.047 86.5399Z" fill="white"/><path d="M237.668 85.6793C237.438 76.7968 223.485 75.7078 225.75 87.5662" stroke="#3C5D87" stroke-width="1.84127" stroke-linecap="round"/><path fill-rule="evenodd" clip-rule="evenodd" d="M234.851 71.6676C230.2 69.6884 225.954 71.5794 224.357 72.8146C223.901 73.167 223.818 73.8219 224.17 74.2775C224.523 74.733 225.178 74.8167 225.633 74.4643C226.834 73.5351 230.284 71.9912 234.034 73.5867C234.564 73.8122 235.176 73.5654 235.402 73.0355C235.627 72.5055 235.381 71.8931 234.851 71.6676Z" fill="#3C5D87"/><path d="M249.085 56.5719C250.557 56.2973 251.885 57.5016 251.755 58.993L250.481 73.6141L216.742 68.3503C215.965 68.2291 215.181 68.5197 214.671 69.1179L204.118 81.4935C203.992 81.6411 203.755 81.604 203.68 81.425L198.411 68.8117C197.856 67.4822 198.668 65.979 200.084 65.7147L249.085 56.5719Z" fill="#FFE999" stroke="#3C5D87" stroke-width="1.84127"/><path d="M211.883 61.6667C212.071 52.8506 219.129 45.7943 227.836 45.5019C228.344 45.4848 228.748 45.9084 228.738 46.4167L228.658 50.1564C228.464 59.2813 220.909 66.521 211.784 66.3268L211.883 61.6667Z" fill="#FFE999"/><path d="M203.552 57.4236C204.591 63.2608 210.165 67.1507 216.002 66.1121L215.472 63.1311C214.487 57.5992 209.429 53.8161 203.935 54.3197C203.428 54.3661 203.094 54.8485 203.183 55.349L203.552 57.4236Z" fill="#FFE999"/><path d="M250.321 54.8087L248.957 70.185" stroke="white" stroke-width="1.84127" stroke-linecap="round"/><path fill-rule="evenodd" clip-rule="evenodd" d="M253.5 50.1853L243.863 56.2377L243.863 58.5007L251 57.1853L252.5 61.1853L253.5 50.1853Z" fill="#3C5D87"/><path fill-rule="evenodd" clip-rule="evenodd" d="M215.444 75.3514C211.271 74.0237 208.06 76.4608 206.937 77.8945C206.616 78.3035 206.653 78.9611 207.018 79.3633C207.384 79.7655 207.94 79.7599 208.26 79.3509C209.105 78.2724 211.714 76.2848 215.077 77.3551C215.553 77.5064 216.02 77.1805 216.121 76.6272C216.222 76.0739 215.919 75.5027 215.444 75.3514Z" fill="#3C5D87"/><path d="M220.235 89.8944C217.093 91.2238 215.918 93.0196 216.602 94.6997C216.951 95.639 218.364 97.3256 221.233 96.558" stroke="#3C5D87" stroke-width="1.84127" stroke-linecap="round"/><path d="M211.527 90.5996C212.026 92.7882 213.837 94.2419 215.572 93.8465C217.308 93.4511 217.337 90.5613 216.777 88.6132C216.19 86.5565 214.712 85.1257 212.977 85.5211C211.241 85.9165 211.028 88.4109 211.527 90.5996Z" fill="#3C5D87"/><path d="M227.521 87.4402C227.92 89.6492 229.663 91.1834 231.415 90.8669C233.167 90.5505 233.326 87.6649 232.855 85.6935C232.361 83.6123 230.95 82.1161 229.199 82.4326C227.447 82.749 227.121 85.2313 227.521 87.4402Z" fill="#3C5D87"/><circle cx="214.429" cy="125.881" r="5.90179" fill="#C29980" stroke="#3C5D87" stroke-width="1.84127"/><path d="M172.551 116.197C172.282 115.311 172.945 114.416 173.872 114.416H207.598C208.207 114.416 208.743 114.814 208.92 115.396L215.083 135.72C215.352 136.607 214.689 137.502 213.762 137.502H180.036C179.428 137.502 178.891 137.104 178.714 136.522L172.551 116.197Z" fill="white"/><path d="M172.551 116.197C172.282 115.311 172.945 114.416 173.872 114.416H207.598C208.207 114.416 208.743 114.814 208.92 115.396L215.083 135.72C215.352 136.607 214.689 137.502 213.762 137.502H180.036C179.428 137.502 178.891 137.104 178.714 136.522L172.551 116.197Z" fill="#3C5D87" fill-opacity="0.3"/><path d="M172.551 116.197C172.282 115.311 172.945 114.416 173.872 114.416H207.598C208.207 114.416 208.743 114.814 208.92 115.396L215.083 135.72C215.352 136.607 214.689 137.502 213.762 137.502H180.036C179.428 137.502 178.891 137.104 178.714 136.522L172.551 116.197Z" stroke="#3C5D87" stroke-width="1.84127"/><path d="M207.13 115.177L213.625 136.547" stroke="white" stroke-width="2.76191" stroke-linecap="square"/><path d="M172.551 116.197C172.282 115.311 172.945 114.416 173.872 114.416H207.598C208.207 114.416 208.743 114.814 208.92 115.396L215.083 135.72C215.352 136.607 214.689 137.502 213.762 137.502H180.036C179.428 137.502 178.891 137.104 178.714 136.522L172.551 116.197Z" stroke="#3C5D87" stroke-width="1.84127"/><path d="M250.088 119.136C252.393 118.79 254.429 118.849 256.886 119.762" stroke="#3C5D87" stroke-width="1.84127" stroke-linecap="round"/><path d="M132.196 147.341C132.196 136.511 140.976 127.731 151.806 127.731C162.636 127.731 171.416 136.511 171.416 147.341V153.995H132.196V147.341Z" fill="#3C5D87"/><path d="M147.851 142.67C147.215 145.307 142.41 144.846 143.153 141.379" stroke="white" stroke-width="0.920637" stroke-linecap="round"/><path d="M135.997 142.67C136.632 145.307 141.437 144.846 140.694 141.379" stroke="white" stroke-width="0.920637" stroke-linecap="round"/><path d="M143.745 146.379C143.616 147.818 141.419 147.775 141.971 145.784" stroke="white" stroke-width="0.920637" stroke-linecap="round"/><path d="M140.014 146.379C140.143 147.818 142.341 147.775 141.788 145.784" stroke="white" stroke-width="0.920637" stroke-linecap="round"/><path fill-rule="evenodd" clip-rule="evenodd" d="M173.381 151.8C173.286 150.405 172.078 149.351 170.683 149.445C170.307 149.471 169.936 149.497 169.569 149.522C164.729 149.854 160.699 150.132 157.727 149.691C156.16 149.459 155.208 149.064 154.66 148.624C154.214 148.266 153.866 147.75 153.788 146.71C153.685 145.316 152.47 144.27 151.076 144.373C149.681 144.477 148.635 145.691 148.739 147.086C148.909 149.375 149.837 151.245 151.49 152.573C153.042 153.818 155.013 154.408 156.985 154.7C160.534 155.226 165.123 154.907 169.729 154.587C170.161 154.557 170.594 154.527 171.026 154.497C172.421 154.402 173.475 153.195 173.381 151.8Z" fill="#3C5D87"/><path d="M170.075 150.307C164.547 150.381 154.519 151.932 154.261 144.664C154.147 142.058 149.884 141.888 149.885 144.664C149.771 148.912 151.699 153.655 156.342 153.784" stroke="white" stroke-width="0.920637" stroke-linecap="round"/><path d="M130.841 134.198C130.716 133.867 130.997 133.524 131.346 133.581L138.341 134.729C138.691 134.786 138.847 135.2 138.623 135.475L134.132 140.958C133.907 141.232 133.47 141.161 133.345 140.829L130.841 134.198Z" fill="#3C5D87"/><defs><clipPath id="clip0_100_2579"><rect y="40.001" width="405.33" height="128" rx="12" fill="white"/></clipPath></defs></svg>